<svg xmlns="http://www.w3.org/2000/svg" viewBox="0 0 750 500"><g id="freepik--Plants--inject-2"><path d="M657.45,395.31s-26.51-30.5-36.51-61-5.25-27-5.25-27,13.5,29.64,23.75,43.95S668,386.56,668,386.56Z" style="fill:#455a64"></path><path d="M662.73,312a1.54,1.54,0,0,0-2.87,1c1.61,10.72,5.11,35.87,5,52.18-.18,21.19,0,29.38,0,29.38h11s-2-43.8-4.45-57.16C669.67,328.06,666,317.66,662.73,312Z" style="fill:#455a64"></path><path d="M668.75,391a117,117,0,0,0,9.08-32.94c.91-7.8-.72-18.34-3.13-32.41a87.72,87.72,0,0,1-1.39-15.59,2.63,2.63,0,0,1,4.94-1.24c1.33,2.38,5.19,10.5,6.17,15.58,2.67,13.89,5.69,20.84,3.38,34s-10.86,33.48-10.86,33.48Z" style="fill:#455a64"></path><path d="M678.68,391.91s29.11-62.55,31.13-71.83,8.87-30.66,9.68-29.45,2,12.51-3.23,25.42-27.64,77.76-27.64,77.76h-9.94" style="fill:#455a64"></path><path d="M665.56,389.11a6.71,6.71,0,0,1-.82-.56c-.51-.39-1.3-.94-2.25-1.72a100.71,100.71,0,0,1-7.82-6.91,131,131,0,0,1-21.12-27.1,177.11,177.11,0,0,1-14.41-31.22c-1.46-4.15-2.53-7.55-3.22-9.92-.36-1.17-.61-2.1-.78-2.72a5.23,5.23,0,0,1-.22-1,6.23,6.23,0,0,1,.34.93l.89,2.69c.76,2.34,1.89,5.72,3.4,9.84a189.55,189.55,0,0,0,14.54,31.06A136.51,136.51,0,0,0,655,379.61c3.11,3.1,5.78,5.45,7.66,7,.93.81,1.69,1.39,2.18,1.81A6.1,6.1,0,0,1,665.56,389.11Z" style="fill:#263238"></path><path d="M668.74,359.1a11.17,11.17,0,0,1-.26-1.83c-.14-1.3-.32-3-.53-5-.46-4.24-1.18-10.07-2.21-16.48s-2.18-12.18-3.07-16.34c-.43-2-.79-3.66-1.06-4.93a11.16,11.16,0,0,1-.33-1.83,10.67,10.67,0,0,1,.56,1.77c.33,1.15.76,2.82,1.26,4.89,1,4.14,2.22,9.91,3.25,16.34s1.68,12.28,2,16.53c.18,2.13.29,3.85.34,5A9,9,0,0,1,668.74,359.1Z" style="fill:#263238"></path><path d="M675.56,308.35a4.66,4.66,0,0,1,.34.8c.23.59.52,1.36.88,2.32s.82,2.25,1.25,3.73,1,3.12,1.41,5l.72,2.94c.25,1,.42,2.11.64,3.22.48,2.22.77,4.63,1.12,7.16a106.64,106.64,0,0,1-1.18,33.06c-.53,2.5-1,4.88-1.63,7.06-.3,1.09-.55,2.16-.87,3.16s-.63,2-.93,2.89c-.56,1.85-1.23,3.46-1.77,4.89s-1.06,2.65-1.51,3.63l-1,2.25a4.32,4.32,0,0,1-.4.77,4.43,4.43,0,0,1,.29-.82l.92-2.3c.42-1,.92-2.21,1.41-3.65s1.15-3.06,1.68-4.91c.28-.92.58-1.88.89-2.88s.54-2.07.83-3.16c.61-2.18,1-4.55,1.57-7a110.65,110.65,0,0,0,1.18-32.89c-.34-2.52-.61-4.92-1.06-7.13-.22-1.11-.38-2.19-.61-3.21s-.46-2-.68-2.94c-.39-1.88-.92-3.54-1.32-5s-.79-2.72-1.14-3.74-.57-1.76-.76-2.36A4.49,4.49,0,0,1,675.56,308.35Z" style="fill:#263238"></path><path d="M719.15,291.89a.75.75,0,0,1,0,.28c0,.22-.08.49-.13.81-.13.71-.29,1.77-.57,3.12-.56,2.69-1.5,6.56-3,11.26s-3.43,10.2-5.79,16.26-5.08,12.65-7.66,19.67-4.65,13.86-6.55,20.06-3.66,11.8-5.39,16.4a105.66,105.66,0,0,1-4.59,10.7c-.6,1.24-1.14,2.16-1.48,2.8l-.41.71a1,1,0,0,1-.16.24,1.12,1.12,0,0,1,.1-.27l.36-.74c.31-.66.81-1.6,1.37-2.85,1.17-2.48,2.75-6.12,4.4-10.74s3.4-10.19,5.26-16.41,3.87-13.08,6.5-20.11,5.34-13.63,7.72-19.67,4.41-11.52,5.9-16.19,2.51-8.51,3.14-11.18c.32-1.33.52-2.38.69-3.08.08-.32.14-.58.19-.8A.91.91,0,0,1,719.15,291.89Z" style="fill:#263238"></path><path d="M629.41,278.07a2.51,2.51,0,0,0-4.13,2.56,71.22,71.22,0,0,0,3.66,9.4c4,8.51,15.76,39,21.26,55.77s13.25,48,13.25,48l11.75-1.9S664.45,340.55,654,322C645.51,307.17,637.07,285.69,629.41,278.07Z" style="fill:#455a64"></path><path d="M653.41,356.28a6.84,6.84,0,0,1,.61,1.41c.35.92.82,2.26,1.35,3.94,1.08,3.35,2.41,8,3.74,13.23s2.44,9.94,3.21,13.37c.36,1.62.65,3,.89,4.07a7.84,7.84,0,0,1,.24,1.51,7.18,7.18,0,0,1-.48-1.45c-.28-1.07-.64-2.42-1.07-4L658.51,375c-1.33-5.2-2.59-9.89-3.56-13.26l-1.16-4A7.63,7.63,0,0,1,653.41,356.28Z" style="fill:#263238"></path><path d="M669.35,392.86a1.41,1.41,0,0,1-.06-.31c0-.25-.08-.55-.14-.93-.12-.81-.23-2-.48-3.56-.43-3.08-1.2-7.53-2.46-12.95a187.84,187.84,0,0,0-5.5-18.77c-2.41-7-5.43-14.48-8.86-22.27-6.91-15.55-13.81-29.34-18.35-39.53-2.29-5.09-4.07-9.24-5.24-12.14-.6-1.44-1-2.57-1.32-3.34-.13-.36-.24-.64-.33-.88a1.13,1.13,0,0,1-.09-.3s.06.09.15.28.23.51.39.85l1.42,3.3c1.24,2.86,3.08,7,5.42,12,4.63,10.15,11.6,23.9,18.52,39.47,3.43,7.8,6.44,15.34,8.83,22.33A178.87,178.87,0,0,1,666.64,375a131.7,131.7,0,0,1,2.27,13c.21,1.55.28,2.76.37,3.58,0,.38.05.68.07.93A1.3,1.3,0,0,1,669.35,392.86Z" style="fill:#263238"></path><path d="M675.2,391.91a13.63,13.63,0,0,1-.4-2c-.23-1.38-.54-3.2-.91-5.4-.81-4.55-2-10.82-3.82-17.64s-3.75-12.91-5.27-17.27L663,344.46a11.9,11.9,0,0,1-.62-1.92,13.23,13.23,0,0,1,.85,1.83c.5,1.19,1.21,2.93,2,5.1a170.1,170.1,0,0,1,5.46,17.26,180.26,180.26,0,0,1,3.65,17.73c.34,2.29.59,4.15.72,5.44A13.42,13.42,0,0,1,675.2,391.91Z" style="fill:#263238"></path><rect x="653.45" y="390.22" width="45.86" height="55.87" style="fill:#407BFF"></rect><g style="opacity:0.30000000000000004"><rect x="653.45" y="390.22" width="45.86" height="55.87"></rect></g><rect x="644" y="390.22" width="40.68" height="55.87" style="fill:#407BFF"></rect><path d="M88.53,370.8c-7.82-5-18.64-5.1-26.24.21-7.22,5.05-10.89,14.23-10.57,23s4.59,19.55,12.56,24.18l23.4-.1a31.42,31.42,0,0,0,12.88-23.61C100.91,385.24,96.34,375.8,88.53,370.8Z" style="fill:#455a64"></path><path d="M77,419.07a10.56,10.56,0,0,1-.14-2c0-1.44-.1-3.28-.16-5.49-.12-4.63-.3-11-.61-18.09s-.69-13.46-1-18.09c-.13-2.2-.24-4-.33-5.48a10.42,10.42,0,0,1,0-2,11.09,11.09,0,0,1,.32,2c.16,1.29.35,3.16.57,5.47.42,4.62.88,11,1.2,18.09s.41,13.49.39,18.13c0,2.32,0,4.19-.08,5.49A11,11,0,0,1,77,419.07Z" style="fill:#263238"></path><path d="M54.08,392.05c0,.2-1.29.27-2.84.14s-2.79-.4-2.78-.6,1.29-.27,2.84-.15S54.1,391.84,54.08,392.05Z" style="fill:#263238"></path><path d="M54.52,384.15c-.09.19-1.18-.11-2.45-.68s-2.23-1.17-2.15-1.36,1.18.12,2.45.68S54.6,384,54.52,384.15Z" style="fill:#263238"></path><path d="M58.58,378.29c-.11.17-1.34-.41-2.62-1.47s-2.09-2.17-1.94-2.3,1.17.69,2.41,1.72S58.69,378.11,58.58,378.29Z" style="fill:#263238"></path><path d="M62.67,372.76c-.19.08-.78-.84-1.32-2.06s-.83-2.28-.64-2.37.78.84,1.32,2.07S62.85,372.68,62.67,372.76Z" style="fill:#263238"></path><path d="M69.08,368.84c-.19.08-.82-.9-1.25-2.26s-.46-2.54-.26-2.57.57,1,1,2.34S69.27,368.75,69.08,368.84Z" style="fill:#263238"></path><path d="M79.77,364.41c.2.07.08.91-.26,1.88s-.78,1.69-1,1.62-.08-.9.26-1.87S79.58,364.34,79.77,364.41Z" style="fill:#263238"></path><path d="M87.71,367.82c.14.15-.37.85-1.14,1.56s-1.5,1.16-1.64,1,.37-.85,1.13-1.56S87.57,367.67,87.71,367.82Z" style="fill:#263238"></path><path d="M94.69,372.33c.12.17-.5.79-1.38,1.39s-1.69.94-1.81.77.51-.79,1.39-1.39S94.58,372.16,94.69,372.33Z" style="fill:#263238"></path><path d="M99.65,379.05c.08.19-.89.79-2.18,1.34s-2.4.84-2.48.65.9-.79,2.19-1.33S99.57,378.86,99.65,379.05Z" style="fill:#263238"></path><path d="M101.61,386.39c0,.2-1,.5-2.23.65s-2.28.12-2.31-.09,1-.49,2.22-.65S101.58,386.18,101.61,386.39Z" style="fill:#263238"></path><path d="M102.62,395.42c-.08.19-1.14-.09-2.36-.62s-2.16-1.12-2.08-1.31,1.15.09,2.37.62S102.71,395.23,102.62,395.42Z" style="fill:#263238"></path><path d="M101.73,403.17c-.07.19-1.41-.13-2.81-1.05s-2.23-2-2.09-2.15,1.17.66,2.5,1.52S101.8,403,101.73,403.17Z" style="fill:#263238"></path><path d="M97.69,410.22c-.12.16-1.19-.46-2.21-1.57s-1.57-2.21-1.41-2.33,1,.77,2,1.82S97.83,410.06,97.69,410.22Z" style="fill:#263238"></path><path d="M59.39,411.05c.09.18-1,1-2.51,1.72S54.13,414,54,413.84s1-1,2.5-1.73S59.29,410.87,59.39,411.05Z" style="fill:#263238"></path><path d="M55.89,404.67c.08.19-.82.78-2,1.32s-2.23.83-2.32.64.82-.78,2-1.32S55.8,404.48,55.89,404.67Z" style="fill:#263238"></path><path d="M53.32,399c0,.2-1.08.53-2.48.73s-2.54.19-2.57,0,1.08-.53,2.47-.72S53.29,398.81,53.32,399Z" style="fill:#263238"></path><path d="M61.75,395.9c.06.2-1,.7-2.45.86s-2.61-.09-2.59-.29,1.14-.29,2.5-.45S61.69,395.7,61.75,395.9Z" style="fill:#263238"></path><path d="M68.76,388.93c.06.19-.8.63-2,.74s-2.08-.14-2.06-.34.92-.29,2-.4S68.7,388.73,68.76,388.93Z" style="fill:#263238"></path><path d="M70.1,383.34c-.07.2-1,.05-2.08-.32s-1.9-.83-1.83-1,1-.05,2.08.33S70.17,383.15,70.1,383.34Z" style="fill:#263238"></path><path d="M72.67,377.69c-.14.15-.78-.27-1.24-1.07s-.5-1.55-.3-1.6.54.53,1,1.23S72.82,377.55,72.67,377.69Z" style="fill:#263238"></path><path d="M69.57,400.82c.05.2-.75.57-1.8.83a6.73,6.73,0,0,1-1.51.22l-.14-.44c.27,0,.44,0,.48.05s-.08.21-.3.38l-.15-.44a7,7,0,0,1,1.45-.5C68.64,400.67,69.52,400.62,69.57,400.82Z" style="fill:#263238"></path><path d="M71,410.73c.07.19-1,.77-2.3,1.3s-2.49.8-2.56.61,1-.78,2.29-1.3S70.94,410.54,71,410.73Z" style="fill:#263238"></path><path d="M63.1,406.33c.07.19-.62.6-1.53.91s-1.7.41-1.77.21.62-.6,1.53-.91S63,406.13,63.1,406.33Z" style="fill:#263238"></path><path d="M63.7,386.17c0,.2-1.24.08-2.61-.41s-2.38-1.15-2.29-1.33,1.2.15,2.54.62S63.75,386,63.7,386.17Z" style="fill:#263238"></path><path d="M82.86,384c.12.17-.55.81-1.49,1.43s-1.8,1-1.92.81.56-.81,1.5-1.43S82.75,383.8,82.86,384Z" style="fill:#263238"></path><path d="M83.91,393.92c0,.2-.67.52-1.58.71s-1.68.18-1.73,0,.67-.52,1.58-.71S83.86,393.72,83.91,393.92Z" style="fill:#263238"></path><path d="M85.12,405.11c-.09.18-1.11-.1-2.27-.64s-2-1.13-2-1.32,1.11.1,2.27.64S85.2,404.92,85.12,405.11Z" style="fill:#263238"></path><path d="M82.55,416c-.16.14-.82-.4-1.47-1.2s-1-1.55-.89-1.68.81.41,1.47,1.21S82.71,415.86,82.55,416Z" style="fill:#263238"></path><path d="M82,376.65c.13.16-.31.71-1.06,1.08s-1.44.4-1.49.2.49-.52,1.16-.86S81.9,376.49,82,376.65Z" style="fill:#263238"></path><path d="M91.42,386.68c.07.19-.8.67-2,.84s-2.15-.06-2.14-.26.93-.33,2-.48S91.35,386.49,91.42,386.68Z" style="fill:#263238"></path><path d="M89.55,377.68c.09.18-.77.8-2,1.19s-2.28.39-2.31.19.92-.53,2.08-.91S89.45,377.49,89.55,377.68Z" style="fill:#263238"></path><path d="M93.47,400.63c0,.2-1.48.33-3.26,0s-3.11-1-3-1.15,1.47.11,3.18.41S93.47,400.42,93.47,400.63Z" style="fill:#263238"></path><path d="M90,413.71c-.12.16-1.21-.48-2.29-1.57S86,410,86.13,409.84s1,.72,2.09,1.78S90.11,413.55,90,413.71Z" style="fill:#263238"></path><path d="M74.64,367a34,34,0,0,0-6.55,5.18,32,32,0,0,0-8.16,18,40.8,40.8,0,0,0,.49,11.05,87.57,87.57,0,0,0,2.07,8.87c.72,2.49,1.38,4.49,1.82,5.88a14.64,14.64,0,0,1,.63,2.18,11.76,11.76,0,0,1-.9-2.08c-.53-1.36-1.27-3.34-2.05-5.83a73.65,73.65,0,0,1-2.24-8.9,39.34,39.34,0,0,1-.56-11.25,31.47,31.47,0,0,1,8.52-18.32A23.15,23.15,0,0,1,72.59,368a12.42,12.42,0,0,1,1.5-.78A2.2,2.2,0,0,1,74.64,367Z" style="fill:#263238"></path><path d="M84.83,418.7c-.17-.09,1.67-2.92,3.35-8a45.39,45.39,0,0,0,2-20.63A38.85,38.85,0,0,0,87,379a26.22,26.22,0,0,0-5.42-7.56,20.12,20.12,0,0,0-5.32-3.36c-1.38-.57-2.21-.71-2.2-.77a2,2,0,0,1,.61,0,10.61,10.61,0,0,1,1.69.45,18.36,18.36,0,0,1,5.56,3.24,25.49,25.49,0,0,1,5.7,7.65,38.19,38.19,0,0,1,3.3,11.2,43.88,43.88,0,0,1-2.25,20.91c-.42,1.29-1,2.39-1.37,3.39s-.88,1.8-1.24,2.46A16,16,0,0,1,84.83,418.7Z" style="fill:#263238"></path><polygon points="55.89 416.93 97.07 416.93 97.32 425.17 55.89 425.17 55.89 416.93" style="fill:#407BFF"></polygon><polygon points="59.39 421.05 61.75 446.21 91.86 446.21 94.28 421.33 59.39 421.05" style="fill:#407BFF"></polygon><path d="M97.32,425.27c0,.21-9.27.37-20.71.37s-20.71-.16-20.71-.37,9.27-.37,20.71-.37S97.32,425.06,97.32,425.27Z" style="fill:#263238"></path><path d="M93.14,432.93a6.2,6.2,0,0,1-.88,1.58,23.14,23.14,0,0,1-3.2,3.77l-.19.18-.18-.2a59.2,59.2,0,0,0-8.08-7.06l.46,0-3.58,3.14L73.26,438l-.23.21-.24-.2-6.87-5.78.4-.05c-1.42,1.74-2.62,3.19-3.56,4.35a9.52,9.52,0,0,1-1.4,1.52,11.21,11.21,0,0,1,1.15-1.72l3.36-4.49.18-.23.23.18,7,5.66h-.46l4.21-3.7,3.59-3.13.22-.19.24.17a52.91,52.91,0,0,1,8,7.29H88.7A40.28,40.28,0,0,0,93.14,432.93Z" style="fill:#263238"></path></g><g id="freepik--Device--inject-2"><rect x="137.46" y="131.77" width="465.06" height="307.54" rx="14.57" style="fill:#455a64"></rect><path d="M122.24,419.44H626.09a0,0,0,0,1,0,0v9.11a17.8,17.8,0,0,1-17.8,17.8H140a17.8,17.8,0,0,1-17.8-17.8v-9.11A0,0,0,0,1,122.24,419.44Z" style="fill:#455a64"></path><polygon points="324.15 416.56 330.4 426.51 418.38 426.51 424.18 416.56 324.15 416.56" style="fill:#263238"></polygon><path d="M598.52,416.56c0,.17-103.22.3-230.51.3s-230.55-.13-230.55-.3,103.2-.3,230.55-.3S598.52,416.39,598.52,416.56Z" style="fill:#263238"></path><rect x="150.78" y="149.45" width="436.6" height="258.98" rx="3.27" style="fill:#ebebeb"></rect><polygon points="586.91 408.81 150.31 408.81 150.78 168.81 586.91 168.81 586.91 408.81" style="fill:#fff"></polygon><path d="M186.59,159.46A3.49,3.49,0,1,1,183.1,156,3.48,3.48,0,0,1,186.59,159.46Z" style="fill:#263238"></path><path d="M165.46,159.46A3.49,3.49,0,1,1,162,156,3.48,3.48,0,0,1,165.46,159.46Z" style="fill:#263238"></path><path d="M175.6,159.46a3.49,3.49,0,1,1-3.49-3.49A3.48,3.48,0,0,1,175.6,159.46Z" style="fill:#263238"></path><rect x="150.31" y="385.63" width="437.07" height="23.18" style="fill:#263238"></rect><path d="M166.83,399.9v.74h-3.48v-.58l1.87-1.78c.46-.44.54-.72.54-1,0-.43-.3-.68-.88-.68a1.32,1.32,0,0,0-1.1.49l-.62-.47a2.2,2.2,0,0,1,1.8-.78c1,0,1.69.51,1.69,1.35a1.88,1.88,0,0,1-.79,1.49l-1.26,1.2Z" style="fill:#fff"></path><path d="M167.3,397.56a.56.56,0,1,1,.55.56A.54.54,0,0,1,167.3,397.56Zm0,2.57a.56.56,0,1,1,1.11,0,.56.56,0,1,1-1.11,0Z" style="fill:#fff"></path><path d="M170.6,395.92v4.72h-.87v-4h-1v-.74Z" style="fill:#fff"></path><path d="M175.75,399.57h-.84v1.07h-.85v-1.07h-2.59V399l2.33-3h.94l-2.2,2.91h1.55v-.95h.82v.95h.84Z" style="fill:#fff"></path><rect x="183.46" y="397.68" width="358.24" height="1.63" style="fill:#fff"></rect><rect x="183.19" y="395.93" width="111.95" height="4.36" style="fill:#407BFF"></rect><path d="M298.76,398.5a5.45,5.45,0,1,1-5.45-5.45A5.45,5.45,0,0,1,298.76,398.5Z" style="fill:#407BFF"></path><path d="M550.72,398.45A1.57,1.57,0,0,1,549,400c-1.29,0-2-.83-2-2.35a2.24,2.24,0,0,1,2.32-2.51,2.4,2.4,0,0,1,1.24.31l-.33.66a1.56,1.56,0,0,0-.89-.23c-.89,0-1.45.55-1.45,1.62h0a1.6,1.6,0,0,1,1.26-.49A1.47,1.47,0,0,1,550.72,398.45Zm-.85,0c0-.49-.37-.8-.94-.8a.86.86,0,0,0-1,.81c0,.44.35.79,1,.79A.81.81,0,0,0,549.87,398.49Z" style="fill:#fff"></path><path d="M551.15,396.83a.56.56,0,1,1,1.11,0,.56.56,0,1,1-1.11,0Zm0,2.57a.56.56,0,1,1,1.11,0,.56.56,0,1,1-1.11,0Z" style="fill:#fff"></path><path d="M552.82,397.55c0-1.55.85-2.43,2-2.43s2,.88,2,2.43-.85,2.43-2,2.43S552.82,399.1,552.82,397.55Zm3.06,0c0-1.14-.44-1.66-1.09-1.66s-1.09.52-1.09,1.66.45,1.67,1.09,1.67S555.88,398.69,555.88,397.55Z" style="fill:#fff"></path><path d="M557.35,397.55c0-1.55.85-2.43,2-2.43s2,.88,2,2.43-.85,2.43-2,2.43S557.35,399.1,557.35,397.55Zm3.07,0c0-1.14-.45-1.66-1.1-1.66s-1.08.52-1.08,1.66.44,1.67,1.08,1.67S560.42,398.69,560.42,397.55Z" style="fill:#fff"></path><polygon points="568.93 397.26 567.29 397.26 567.29 392.55 572 392.55 572 394.18 568.93 394.18 568.93 397.26" style="fill:#fff"></polygon><polygon points="572 403.4 567.29 403.4 567.29 398.7 568.92 398.7 568.92 401.77 572 401.77 572 403.4" style="fill:#fff"></polygon><polygon points="579.5 403.4 574.8 403.4 574.8 401.77 577.86 401.77 577.86 398.69 579.5 398.69 579.5 403.4" style="fill:#fff"></polygon><polygon points="579.5 397.25 577.87 397.25 577.87 394.18 574.79 394.18 574.79 392.55 579.5 392.55 579.5 397.25" style="fill:#fff"></polygon><polygon points="210.19 183.08 184.45 183.08 171.59 205.37 184.45 227.65 210.19 227.65 223.05 205.37 210.19 183.08" style="fill:#ebebeb"></polygon><path d="M186.55,209.73a22.72,22.72,0,0,1-3.14-4.06,7.77,7.77,0,0,1-1.07-4.94,27.43,27.43,0,0,0,.65-2.93c.1-1.38-.48-2.82,0-4.11.76-2,3.47-2.33,5.12-3.72,1.28-1.09,1.91-2.85,3.32-3.76a6.25,6.25,0,0,1,4.27-.58,15.75,15.75,0,0,0,4.37.38,29.45,29.45,0,0,0,3-.81,4.11,4.11,0,0,1,3,.21,2,2,0,0,1,.82,2.67c1.69-.78,3.83.54,4.29,2.33a5,5,0,0,1-1.89,4.93,11,11,0,0,1-5.1,2.08c-5.17,1-10.77.43-15.22-2.37" style="fill:#263238"></path><path d="M210.41,215.23c-.17-3.19-1.06-9.73-1.94-15.64a12.34,12.34,0,0,0-13-10.5l-.64,0c-6.84.86-9.93,7.15-8.88,14l2,24.55h16.7s-.4-4.31-.4-4.35S210.77,221.83,210.41,215.23Z" style="fill:#ffbe9d"></path><path d="M204.24,223.21a15.47,15.47,0,0,1-8.77-1.87s2.36,4.61,8.9,3.58Z" style="fill:#eb996e"></path><path d="M206.34,205.25a.93.93,0,0,1-.84,1,.89.89,0,0,1-1-.78.94.94,0,0,1,.84-1A.89.89,0,0,1,206.34,205.25Z" style="fill:#263238"></path><path d="M207.27,202.91c-.11.13-.86-.35-1.88-.28s-1.72.63-1.84.51,0-.28.36-.54a2.62,2.62,0,0,1,1.46-.56,2.46,2.46,0,0,1,1.5.38C207.2,202.64,207.32,202.85,207.27,202.91Z" style="fill:#263238"></path><path d="M196.76,205.94a1,1,0,0,1-.84,1,.91.91,0,0,1-1-.79,1,1,0,0,1,.84-1A.91.91,0,0,1,196.76,205.94Z" style="fill:#263238"></path><path d="M197.31,203.77c-.11.13-.86-.35-1.88-.28s-1.72.62-1.84.51,0-.28.36-.54a2.6,2.6,0,0,1,3-.19C197.24,203.49,197.36,203.71,197.31,203.77Z" style="fill:#263238"></path><path d="M201.49,211a6.63,6.63,0,0,1,1.63-.41c.26,0,.5-.11.53-.29a1.32,1.32,0,0,0-.22-.75l-.9-1.92a34.65,34.65,0,0,1-2.07-5,33.69,33.69,0,0,1,2.47,4.87c.3.67.59,1.32.87,1.93a1.59,1.59,0,0,1,.2,1,.68.68,0,0,1-.4.41,2,2,0,0,1-.44.09A6.56,6.56,0,0,1,201.49,211Z" style="fill:#263238"></path><path d="M197.3,199.77c-.08.28-1.1.22-2.28.45s-2.12.61-2.3.37.08-.38.45-.68a3.87,3.87,0,0,1,1.67-.71,3.75,3.75,0,0,1,1.81.09C197.1,199.44,197.34,199.64,197.3,199.77Z" style="fill:#263238"></path><path d="M206.7,200c-.17.24-.88.05-1.72.09s-1.54.26-1.72,0,0-.35.31-.59a2.35,2.35,0,0,1,1.37-.47,2.43,2.43,0,0,1,1.4.37C206.65,199.65,206.77,199.88,206.7,200Z" style="fill:#263238"></path><path d="M186.8,208c-.12,0-4.63-1-4.18,3.47s5.33,3,5.32,2.9S186.8,208,186.8,208Z" style="fill:#ffbe9d"></path><path d="M185.94,212.85s-.07.06-.19.13a.79.79,0,0,1-.59.07,1.94,1.94,0,0,1-1.07-1.65,2.5,2.5,0,0,1,.11-1.14.9.9,0,0,1,.53-.67.41.41,0,0,1,.48.17c.08.12.06.22.08.22s.09-.08,0-.27a.51.51,0,0,0-.2-.26.57.57,0,0,0-.45-.07,1.13,1.13,0,0,0-.75.78,2.68,2.68,0,0,0-.14,1.28,2,2,0,0,0,1.33,1.83.86.86,0,0,0,.71-.19C186,213,186,212.85,185.94,212.85Z" style="fill:#eb996e"></path><path d="M208.14,193.42c-.31,1.79-3.95,3.44-7,3.35-2.78-.08-4.16-1.46-6.17-2.44-1.28-.62-1.28-.62-3-.34-1.4.23-2.13,1.88-2.91,3.07,1.5,3.27.89,7.07.25,10.61a1.76,1.76,0,0,1-.45,1.07,1.44,1.44,0,0,1-1.83-.27,5.62,5.62,0,0,1-1.42-2.86,18.69,18.69,0,0,1-.44-7.33,12.63,12.63,0,0,1,3-6.61,12,12,0,0,1,8.19-3.73,14.75,14.75,0,0,1,8.73,2.47,8.79,8.79,0,0,1,3,3" style="fill:#263238"></path><path d="M202.16,213.32l-2.3-1.07a.77.77,0,0,0-.42-.1.63.63,0,0,0-.39.27,2.12,2.12,0,0,0-.26,2.34,1.79,1.79,0,0,0,2.16.79,2.45,2.45,0,0,0,1.27-2.16Z" style="fill:#eb996e"></path><path d="M201,215.72s-.48.37-1.35.12a2.14,2.14,0,0,1-1.19-1,2.19,2.19,0,0,1-.15-1.88,2.3,2.3,0,0,1,.56-.84,2.32,2.32,0,0,1,.39-.29.64.64,0,0,1,.6,0c.53.29.88.54,1.23.76.67.45,1.07.76,1,.82s-.5-.13-1.22-.5l-1.23-.64c-.09,0-.08,0-.18,0a1.89,1.89,0,0,0-.28.23,1.74,1.74,0,0,0-.42.66,1.8,1.8,0,0,0,.08,1.46,1.87,1.87,0,0,0,.9.85C200.49,215.79,201,215.63,201,215.72Z" style="fill:#263238"></path><path d="M200.29,205.36s0-.41-.24-1.12a4.7,4.7,0,0,0-1.73-2.47,4.48,4.48,0,1,0,0,7.19,4.7,4.7,0,0,0,1.73-2.47c.2-.71.19-1.13.24-1.13s0,.11,0,.31a3.51,3.51,0,0,1-.09.87,4.64,4.64,0,0,1-1.69,2.71,4.9,4.9,0,0,1-4.64.76,4.93,4.93,0,0,1,0-9.29,4.9,4.9,0,0,1,4.64.76,4.64,4.64,0,0,1,1.69,2.71,3.47,3.47,0,0,1,.09.87C200.32,205.26,200.31,205.36,200.29,205.36Z" style="fill:#263238"></path><path d="M211.52,204.92c-.05,0,0-.4-.24-1.09a4.55,4.55,0,0,0-1.68-2.4,4.36,4.36,0,1,0,0,7,4.55,4.55,0,0,0,1.68-2.4c.2-.69.19-1.1.24-1.1s0,.1,0,.3a3.78,3.78,0,0,1-.08.85,4.56,4.56,0,0,1-1.65,2.64,4.77,4.77,0,0,1-4.53.74,4.81,4.81,0,0,1,0-9.06,4.77,4.77,0,0,1,4.53.74,4.58,4.58,0,0,1,1.65,2.65,3.69,3.69,0,0,1,.08.85C211.55,204.82,211.54,204.92,211.52,204.92Z" style="fill:#263238"></path><path d="M202.36,203.89c-.1.09-.55-.2-1.15-.18s-1,.31-1.14.22.28-.72,1.13-.74S202.49,203.81,202.36,203.89Z" style="fill:#263238"></path><path d="M191.17,204.7c.09.11-.79.91-1.95,1.78a6.71,6.71,0,0,1-2.26,1.36c-.09-.11.79-.91,1.95-1.78A6.61,6.61,0,0,1,191.17,204.7Z" style="fill:#263238"></path><path d="M284,205.14c0,.14-11.57.26-25.84.26s-25.84-.12-25.84-.26,11.57-.26,25.84-.26S284,205,284,205.14Z" style="fill:#263238"></path><path d="M260.09,210.55c0,.14-6.14.26-13.72.26s-13.72-.12-13.72-.26,6.14-.27,13.72-.27S260.09,210.4,260.09,210.55Z" style="fill:#263238"></path></g><g id="freepik--speech-bubble--inject-2"><path d="M432.16,185.44,441,170a41.46,41.46,0,1,1,9.93,11l0,0Z" style="fill:#fafafa"></path><path d="M432.16,185.44l18.77-4.28.19,0L451,181h0l-.18.17a42.72,42.72,0,0,0,8.52,5.14,41.46,41.46,0,0,0,11.36,3.24,37.17,37.17,0,0,0,6.56.33c1.13-.06,2.27-.09,3.43-.18l3.5-.53a41.78,41.78,0,0,0,25.89-16.62,41.38,41.38,0,0,0,7-16,42.42,42.42,0,0,0-.49-18.43,40.93,40.93,0,0,0-8.88-17L506,119.17c-.56-.63-1.22-1.14-1.82-1.72s-1.2-1.16-1.88-1.64l-2-1.48a16.67,16.67,0,0,0-2.06-1.36l-2.1-1.28-2.2-1.07a20.88,20.88,0,0,0-2.22-1,42.46,42.46,0,0,0-18.57-2.85,40.8,40.8,0,0,0-17,5A42,42,0,0,0,436.46,136a44.6,44.6,0,0,0-1.8,13.47,41,41,0,0,0,2,11.63,42.29,42.29,0,0,0,4.15,8.92v-.13c-5.54,9.93-8.25,14.78-8.68,15.54.44-.75,3.22-5.57,8.89-15.42l0-.06,0-.06A41.64,41.64,0,0,1,437,161a40.93,40.93,0,0,1-2-11.55,44.76,44.76,0,0,1,1.83-13.34,41.71,41.71,0,0,1,19.51-23.9,40.31,40.31,0,0,1,16.85-5,41.87,41.87,0,0,1,18.34,2.83,20.34,20.34,0,0,1,2.19,1l2.18,1.06L498,113.4a17.37,17.37,0,0,1,2,1.34l2,1.47c.67.48,1.23,1.08,1.85,1.62s1.25,1.08,1.8,1.7l1.67,1.83a40.57,40.57,0,0,1,8.78,16.83,41.68,41.68,0,0,1,.49,18.2,40.75,40.75,0,0,1-6.9,15.83,41.39,41.39,0,0,1-25.58,16.49l-3.46.54c-1.15.09-2.28.13-3.4.19a37.5,37.5,0,0,1-6.5-.3A41.32,41.32,0,0,1,459.45,186a42.34,42.34,0,0,1-8.49-5.06l-.77-.59.59.77,0,0,.07-.2Z" style="fill:#263238"></path><path d="M487.4,146.55a4,4,0,1,0,4.05-4.05A4,4,0,0,0,487.4,146.55Z" style="fill:#263238"></path><path d="M471.21,146.55a4,4,0,1,0,4-4.05A4,4,0,0,0,471.21,146.55Z" style="fill:#263238"></path><path d="M455.06,144.53a4,4,0,1,0,5.52-1.48A4,4,0,0,0,455.06,144.53Z" style="fill:#263238"></path></g></svg>
