<svg xmlns="http://www.w3.org/2000/svg" viewBox="0 0 500 500"><g id="freepik--Clock--inject-5"><g id="freepik--clock--inject-5"><path d="M227.94,34.9h0l0,0h0l-4.22-2.51h0l0,0h0c-4.17-2.11-9.74-1.49-15.73,2.37-12,7.76-21.25,25.65-20.56,40,.35,7.14,3.09,12,7.24,14.19h0l0,0h0l4.22,2.51h0l0,0h0c4.17,2.12,9.75,1.5,15.75-2.36,12-7.76,21.25-25.65,20.55-40C234.84,42,232.09,37.06,227.94,34.9Z" style="fill:#37474f"></path><path d="M198.53,91.23l-3.92-2.35h0l0,0c-4.15-2.17-6.89-7.06-7.24-14.19-.31-6.38,1.35-13.47,4.35-20.05l4.22,2.5c-3,6.59-4.66,13.68-4.35,20.06C191.89,84.16,194.52,89,198.53,91.23Z" style="fill:#263238"></path><path d="M214.63,89.05c12-7.76,21.25-25.65,20.55-40s-11-19.63-23.07-11.87-21.25,25.65-20.55,40S202.58,96.81,214.63,89.05Z" style="fill:#455a64"></path><path d="M204.53,88.05c-7.1.34-8.26-7.64-8.42-11.09-.62-12.62,7.84-29.07,18.47-35.91a16.08,16.08,0,0,1,7.62-2.83c7.11-.35,8.26,7.64,8.43,11.09.61,12.62-7.84,29.07-18.47,35.91a16.07,16.07,0,0,1-7.63,2.83Z" style="fill:#fafafa"></path><path d="M213.63,66.75c.15,0,.38-.14.61-.41a1.78,1.78,0,0,0,.25-.33,2.78,2.78,0,0,0,.53-1.33V46.41c0-.42-.35-.37-.78.12a3.16,3.16,0,0,0-.77,1.67v16" style="fill:#37474f"></path><path d="M212.15,66.75l-4.41,7.37a1.55,1.55,0,0,0,.06,1.6c.46.57,1,.38,1.11.16l5.1-8.11Z" style="fill:#37474f"></path><path d="M218.6,74.79a.47.47,0,0,0,.11-.13,1,1,0,0,0,.22-.66l-4.28-9.5c-.05-.11-.24,0-.41.25a1,1,0,0,0-.22.66l4.29,9.49C218.35,75,218.47,74.94,218.6,74.79Z" style="fill:#979aca"></path><path d="M214.49,61.63a5.84,5.84,0,0,0-2.72,4.54c-.08,1.77,1,2.63,2.42,1.9a5.83,5.83,0,0,0,2.72-4.53C217,61.77,215.9,60.91,214.49,61.63Z" style="fill:#979aca"></path></g></g><g id="freepik--Chair--inject-5"><g id="freepik--chair--inject-5"><path d="M141.32,361.1a1.3,1.3,0,0,1-1.31-1.31V275.63a1.31,1.31,0,0,1,2.62,0v84.16A1.31,1.31,0,0,1,141.32,361.1Z" style="fill:#455a64"></path><path d="M193.39,330.47a1.33,1.33,0,0,1-1.22-.83l-25.81-65.32a1.31,1.31,0,0,1,2.44-1l25.81,65.32a1.32,1.32,0,0,1-.74,1.7A1.36,1.36,0,0,1,193.39,330.47Z" style="fill:#455a64"></path><path d="M190.29,322.62a1.31,1.31,0,0,1-.95-.41l-48-50.81L93.38,322a1.31,1.31,0,0,1-1.9-1.8l48.89-51.61a1.3,1.3,0,0,1,.95-.41h0a1.32,1.32,0,0,1,1,.41l49,51.82a1.31,1.31,0,0,1-1,2.21Z" style="fill:#455a64"></path><path d="M89.25,330.47a1.32,1.32,0,0,1-.48-.09,1.3,1.3,0,0,1-.74-1.7l25.81-65.32a1.31,1.31,0,1,1,2.43,1L90.46,329.64A1.31,1.31,0,0,1,89.25,330.47Z" style="fill:#455a64"></path><path d="M191.61,320.6l3.41,9a.91.91,0,0,1,0,.23.43.43,0,0,1,0,.16,1,1,0,0,1-.51.57,2.31,2.31,0,0,1-2.08,0,.88.88,0,0,1-.4-.42v0l0-.12-3.17-8.44Z" style="fill:#979aca"></path><path d="M91,320.6l-3.42,9a.91.91,0,0,0,0,.23V330a1.07,1.07,0,0,0,.52.57,2.29,2.29,0,0,0,2.07,0,.91.91,0,0,0,.41-.42v0l0-.12,3.16-8.44Z" style="fill:#979aca"></path><path d="M142.83,353.28v7.44a.75.75,0,0,1-.44.62,2.37,2.37,0,0,1-2.14,0,.75.75,0,0,1-.44-.62v-7.44A3.17,3.17,0,0,1,142.83,353.28Z" style="fill:#979aca"></path><path d="M199.85,263.43c0-2.34-2.06-4.84-6.4-7.66-8-5.2-31.38-18.24-42.61-24.46a.12.12,0,0,0-.09-.09c-8.64-5.25-11.27-27.62-17.25-46.6-2-6.46-4.53-10.12-7.49-11.84-.7-.41-3.29-1.84-3.87-2.18-5.87-3.52-13.57.71-23.16,6-8.83,4.84-15.74,11-17.13,27.46-.84,10,0,29.11,2,43.6v0c2.94,24.2,6.55,24.25,11.79,28.29,9,7,29.34,16.77,37.9,20.14,15.53,6.11,28.22-3.31,37.68-8a221.11,221.11,0,0,0,25.06-14.85c2.37-1.72,3.6-3.46,3.57-5.29C199.83,267.17,199.85,264.19,199.85,263.43Z" style="fill:#263238"></path><path d="M171.21,283.53a218.14,218.14,0,0,0,25.06-14.85c5.39-3.9,4.89-7.9-2.82-12.91-10.72-7-48.77-27.87-48.77-27.87s-55.23,32.59-52.85,38.61,30.93,20.77,41.7,25C149.06,297.62,161.75,288.21,171.21,283.53Z" style="fill:#37474f"></path><path d="M125.67,172.58c-5.82-3.05-13.37,1.1-22.72,6.22-6,3.28-11.08,7.17-14.18,14.44l-4-2.28c3.1-7.25,8.19-11.13,14.16-14.41,9.59-5.25,17.29-9.46,23.16-6C122.65,170.9,124.69,172,125.67,172.58Z" style="fill:#455a64"></path><path d="M103,178.8c14.36-7.86,24.48-13.44,30.55,5.82,6,19,14,44.41,22.67,49.65C143.47,233,103,257.12,96.09,271.05c-1.47-1.22-2.8-2.53-3-2.66-5.65-4.68-8.7-45.71-7.32-62.14S94.12,183.64,103,178.8Z" style="fill:#37474f"></path><g style="opacity:0.1"><path d="M103,178.8c14.36-7.86,24.48-13.44,30.55,5.82,6,19,14,44.41,22.67,49.65C143.47,233,103,257.12,96.09,271.05c-1.47-1.22-2.8-2.53-3-2.66-5.65-4.68-8.7-45.71-7.32-62.14S94.12,183.64,103,178.8Z"></path></g></g></g><g id="freepik--Character--inject-5"><g id="freepik--character--inject-5"><path d="M407.07,338.38a5.82,5.82,0,0,0,.2,2.59c.43.74,2.58,2.27,5,3.41,1.87.88,2.65,2.2,5,4.87a20.29,20.29,0,0,0,7.67,5.37c4,1.71,9.19,2.42,13.77.38a13.59,13.59,0,0,0,4.92-3.43,7.05,7.05,0,0,0,.08-1.44Z" style="fill:#263238"></path><path d="M421.63,326c.58,2.9,3.57,7.66,9.12,11,2,1.19,5.32,2.89,6.66,3.7a19.24,19.24,0,0,1,5.94,6c2.26,3.52-5.64,6.84-9.18,7.07-2.77.19-6.41.55-9.33-.89a24,24,0,0,1-4.07-2.54c-2.55-1.92-4.49-4.45-6.36-6s-5.59-2.85-6.89-4.85c-.71-1.1-.87-3.85-.83-6.22,0-2.16-.34-4.15.65-4.52l.3,1.22a21,21,0,0,0,4.11-.35c.57-.11,1.6,1,2.15.67s-.28-1,.29-2.09C416.06,324.79,421.63,326,421.63,326Z" style="fill:#37474f"></path><path d="M424.84,352.91s.4-7.07,6.08-10.48,8.15-1.06,9.14-.49,4.88,3.32,3.69,8.19A16.94,16.94,0,0,1,424.84,352.91Z" style="fill:#fafafa"></path><path d="M339.7,300.86a3.52,3.52,0,0,0-1.67,2.05c-.16.81.55,3.27,1.33,5.08a20.12,20.12,0,0,1,1.39,7.07,25.06,25.06,0,0,0,2.73,10c1.82,3.78,8.56,9,15.84,8.32,5.74-.56,6.3-3.42,6.08-4.73Z" style="fill:#263238"></path><path d="M358,300.55c-.76,2.83-2.35,9.87,2,15.83,1,1.34,2.22,2.83,3.13,4,1.85,2.35,1.35,5.37,1,7.91-.61,4-15.16.36-17.32-2.26a20,20,0,0,1-4.17-9.31c-.61-3-.37-5.06-1.08-7.26-.78-2.38-2.53-5.22-2.19-7.47.18-1.24,1.81-3.31,3.33-5s2.54-3.1,3.48-2.73l-.57.91a9,9,0,0,0,3,2.4c.48.28.54,2.31,1.14,2.43s.43-1.51,1.51-1.91C354.75,296.79,358,300.55,358,300.55Z" style="fill:#37474f"></path><path d="M346.75,326s2.62-5.83,8.86-6.95,7.86,1.3,8.56,2.15,3.8,5.81-.09,9C364.08,330.19,354.2,334.68,346.75,326Z" style="fill:#fafafa"></path><path d="M420.69,179.85s0,11-1.52,28.52-4.71,34.32-8.95,40.91c-6.38,9.92-33.94,35.53-52.23,56.26,0,0-11.54-2.11-14.49-10.5l37.22-55.5-7-53.45Z" style="fill:#455a64"></path><path d="M380.26,240.26l5.52,20.81-.4,15.56,4.2-4.31s2.38-17.59,1.55-21S380.26,240.26,380.26,240.26Z" style="fill:#37474f"></path><path d="M417.59,196.46s0,4.67-4.4,9.17a33.13,33.13,0,0,1-6.11,4.87l4,28.12-8.14-30.09C408.88,206,414.2,202.72,417.59,196.46Z" style="fill:#37474f"></path><path d="M369.85,181a201.35,201.35,0,0,0-1.15,20.29c.11,5.82,1.77,13.78,4.45,21.82s14.78,33.88,15.78,36.72c.34,1-.15,12.77,2.17,22.22,5.66,23.08,14.52,49,14.52,49a22.81,22.81,0,0,0,16.5-4s-7.65-74.49-8.68-79.24-10.5-39.26-10.5-39.26,17-11.29,17.26-27.33Z" style="fill:#455a64"></path><path d="M377.64,65.22a5.85,5.85,0,0,0-.65.13,3,3,0,0,0-1.6-3.38,3.22,3.22,0,0,0-4.17,1.71l4.54,2.07a6.37,6.37,0,0,0-3.46,3c-1.24,2.56.4,8,2.06,14.75A95.18,95.18,0,0,0,378,95.93c.77,2,2.14,2,2.14,2V91.24l-.29-5.57s3.57-4.89,4-8.89c.5-5.15-.58-7.25-.58-7.25Z" style="fill:#263238"></path><path d="M402.35,59.44a11.33,11.33,0,1,0,11.37,11.29A11.33,11.33,0,0,0,402.35,59.44Z" style="fill:#263238"></path><path d="M380.08,84.78c-1.35,1.16-2.44-1.85-3.57-3s-4.81-2.77-6.63,1.1,1.68,9.31,4.44,10.58c4,1.87,5.84-2.19,5.84-2.19v16.81c4.24,7.65,12.41,6.15,16.76,7.22.79-3.1,1.49-4.56,1-6.28l0-5.48a20.59,20.59,0,0,0,5.55.3c3.66-.58,5.63-3.61,6.73-7.58,1.77-6.39,2.13-17.11-.32-29.51-4.11-3.18-18-2.66-26.63,2.81C383.89,80.52,381.42,83.61,380.08,84.78Z" style="fill:#ffa8a7"></path><circle cx="393.68" cy="82.14" r="1.72" style="fill:#263238"></circle><circle cx="406.72" cy="81.49" r="1.72" style="fill:#263238"></circle><path d="M397.93,103.51s-8.2-1.62-11.07-3.14a9.43,9.43,0,0,1-4-3.9,12.81,12.81,0,0,0,2.26,4.61c2.11,2.67,12.78,4.61,12.78,4.61Z" style="fill:#f28f8f"></path><path d="M412.68,58c0-.14,0-.28-.05-.42a1.37,1.37,0,0,0-.27-.71c-.56-.57-1.66.87-2.05,1.21a14.81,14.81,0,0,1-1.18.91,8.86,8.86,0,0,0-1.1.66,11.93,11.93,0,0,0,0-4.13c-.17-.9-.42-3-1.54-3.22-.67-.14-1.25.42-1.75.89-4.48,4.19-10.34,2.25-15.74,2.42-4.52.15-10,2-12,6.38-.94,2-1.1,4.13.75,5.52,1.19.9,2.35.85,3,2.29.16.35,1.2,4.63.59,4.59a4.71,4.71,0,0,0,5-3.45c.11-.46.37-1.31.47-1.79a1,1,0,0,1,1.29-.79c1.37.3,2.26.86,3.56,1.21a25.94,25.94,0,0,0,11.38.68,13.54,13.54,0,0,0,7.15-3.84A10.74,10.74,0,0,0,412.68,58Z" style="fill:#263238"></path><path d="M393,77.27l-3.36,2.19a2.1,2.1,0,0,1,.61-2.85A2,2,0,0,1,393,77.27Z" style="fill:#263238"></path><path d="M395.51,92.79l5.54,1.44a2.82,2.82,0,0,1-3.44,2.15A3,3,0,0,1,395.51,92.79Z" style="fill:#b16668"></path><path d="M398.65,96.44a3,3,0,0,0-2.95-2.64l-.24,0a3,3,0,0,0,2.15,2.56A2.82,2.82,0,0,0,398.65,96.44Z" style="fill:#f28f8f"></path><path d="M409.85,78.4l-3.67-1.69a1.94,1.94,0,0,1,2.62-1A2.11,2.11,0,0,1,409.85,78.4Z" style="fill:#263238"></path><polygon points="399.48 79.77 400.46 90.81 406.18 88.77 399.48 79.77" style="fill:#f28f8f"></polygon><path d="M452.5,157c-4.24,3.47-6.76,4.13-12.5,0-4.64-3.09-23.57-16.32-23.57-16.32l-2.88-25.44c3.06.59,5,2.63,13.86,10.57,4.9,4.39,17.9,16.3,17.9,16.3,1.9-2.39,12.1-14.57,14.05-17.26a26.57,26.57,0,0,0,4.06-7.3c.43-1.32.84-2.67,1.4-4a20.64,20.64,0,0,1,1.78-3.14c.63-.91,1.2-2.12,1.82-3a1.31,1.31,0,0,1,.4-.44,1,1,0,0,1,1.17.3,5.17,5.17,0,0,1,.66,3,10.64,10.64,0,0,1-.54,2.21,5.53,5.53,0,0,0-.33,2.24,3.59,3.59,0,0,0,2.5-.85,30.08,30.08,0,0,0,6.27-6.47,21,21,0,0,1,2.39-3,2.62,2.62,0,0,1,1.88-.52,2.77,2.77,0,0,1,1.57,1,14.36,14.36,0,0,1,2.31,5.08c.54,2.57.55,6.23-9.15,13.91-1.16.92-4.52,3.08-5.73,5C469.14,133,456.88,152,454.87,154.5Z" style="fill:#ffa8a7"></path><path d="M413.55,114.69c3.64.76,6.58,3.63,10.68,7.46s21.18,19.48,21.18,19.48l7-8.1s2.69,8,9.23,11c0,0-5.61,9.65-9.37,13.21s-6.63,3.35-11.48.41-26.93-18.52-26.93-18.52Z" style="fill:#455a64"></path><path d="M372.89,108c-6.5,2.85-12.25,5.43-15.08,7.23,0,0,3.68,21.25,7.4,31,3.23,8.49,4,43,4,43a110.21,110.21,0,0,0,34.57,1.84,53.6,53.6,0,0,0,17-5s.19-26.24-2-43.76-1.5-25-5.52-28c-2.59-1.93-14-4.45-14-4.45a15.89,15.89,0,0,1-2.25,5.32C393.08,113.34,372.89,108,372.89,108Z" style="fill:#37474f"></path><path d="M406.86,111.92c1.64,30.7-8.31,57.56-18.58,79.06l5.42,3.29s21-37.14,19.49-79.87A12,12,0,0,0,406.86,111.92Z" style="fill:#263238"></path><path d="M401.94,125s.13-9.6-.05-11.85l-3-2.29L400,121.43Z" style="fill:#979aca"></path><path d="M401.94,125s.13-9.6-.05-11.85l-3-2.29L400,121.43Z" style="opacity:0.25"></path><polygon points="397.5 122.34 385.91 111.26 381.51 114.38 395.99 126.66 397.5 122.34" style="fill:#979aca"></polygon><polygon points="397.5 122.34 385.91 111.26 381.51 114.38 395.99 126.66 397.5 122.34" style="opacity:0.25"></polygon><path d="M396.92,115.27c2.25.25,5.38,1.53,5.94.7s-1.37-8.37-4.91-10.66V109A37.89,37.89,0,0,1,396.92,115.27Z" style="fill:#455a64"></path><path d="M380.16,100.94v1.32c.25,1.25,2.72,4.16,8.95,7s7.81,6,7.81,6a7.85,7.85,0,0,0-3.93.63c-2.83,1-7.55,4.61-8.89,4.58s-3.2-3.76-6.73-7.46c-3-3.11-4.48-5-4.48-5S377.74,101,380.16,100.94Z" style="fill:#455a64"></path><path d="M398.09,129.3a273.16,273.16,0,0,1,.84,34.6c-.15,3.71,4.95,11.46,6.24,11.35s3.9-7.09,4.4-11.18c-.11-10-5.9-29.82-8.31-35.2Z" style="fill:#979aca"></path><path d="M401.44,129.3c-.06-.15-.12-.3-.18-.43l-3.17.43.13,1.33A5.48,5.48,0,0,0,401.44,129.3Z" style="opacity:0.15"></path><path d="M397.38,122.11a5.34,5.34,0,0,1,2.64-.68,6.18,6.18,0,0,1,1.93,2.32,7,7,0,0,1-.69,5.12,3.83,3.83,0,0,1-3.17.43,6.7,6.7,0,0,1-2.41-3A6,6,0,0,1,397.38,122.11Z" style="fill:#979aca"></path><g id="freepik--Briefcase--inject-5"><path d="M344.43,213l2.21-40.79a3.62,3.62,0,0,1,1.61-2.61l1.28-.74a1.07,1.07,0,0,1,1.12-.08h0l42.63,24.62-5.87,45.19-42.6-24.6h0A1,1,0,0,1,344.43,213Z" style="fill:#979aca"></path><path d="M344.43,213l2.21-40.79a3.62,3.62,0,0,1,1.61-2.61l1.28-.74a1.07,1.07,0,0,1,1.12-.08h0l42.63,24.62-5.87,45.19-42.6-24.6h0A1,1,0,0,1,344.43,213Z" style="opacity:0.4"></path><path d="M394.86,234.7l-6.44,3.72c-.83.48-1.47.09-1.41-.87l2.21-40.79a3.57,3.57,0,0,1,1.61-2.62l1.27-.74a1,1,0,0,1,1.6.87l2.58,37.82A3.12,3.12,0,0,1,394.86,234.7Z" style="fill:#979aca"></path><path d="M394.86,234.7l-6.44,3.72c-.83.48-1.47.09-1.41-.87l2.21-40.79a3.57,3.57,0,0,1,1.61-2.62l1.27-.74a1,1,0,0,1,1.6.87l2.58,37.82A3.12,3.12,0,0,1,394.86,234.7Z" style="opacity:0.5"></path><path d="M372.42,226.14a.58.58,0,0,0,.58-.55l1.13-19.11a.58.58,0,0,0-.54-.62.59.59,0,0,0-.62.55l-1.13,19.11a.59.59,0,0,0,.55.62Z" style="fill:#979aca"></path><path d="M356.1,216.76a.59.59,0,0,0,.58-.55l1.13-19.11a.59.59,0,0,0-.55-.62.6.6,0,0,0-.62.55l-1.12,19.11a.58.58,0,0,0,.54.62Z" style="fill:#979aca"></path><path d="M383.71,215.58a3.09,3.09,0,0,0,4.63-2.5l.88-16.33a3.61,3.61,0,0,1,1.61-2.61l1.27-.73a1.13,1.13,0,0,1,1-.14l-42.49-24.54h0a1.07,1.07,0,0,0-1.12.08l-1.28.74a3.61,3.61,0,0,0-1.61,2.62l-.86,16.11a8.51,8.51,0,0,0,4.25,7.86Z" style="fill:#979aca"></path><path d="M383.71,215.58a3.09,3.09,0,0,0,4.63-2.5l.88-16.33a3.61,3.61,0,0,1,1.61-2.61l1.27-.73a1.13,1.13,0,0,1,1-.14l-42.49-24.54h0a1.07,1.07,0,0,0-1.12.08l-1.28.74a3.61,3.61,0,0,0-1.61,2.62l-.86,16.11a8.51,8.51,0,0,0,4.25,7.86Z" style="opacity:0.25"></path><polygon points="368.8 205.12 362.62 201.55 362.36 204.97 368.55 208.55 368.8 205.12" style="fill:#979aca"></polygon></g><path d="M357.81,116.25c-3.3,1.92-5.11,3.06-7.39,9.64-2,5.89-10.58,38.4-11.09,43.19s16.21,33.67,21.69,40.18,10.1,9.42,14,9.42,5.34-.74,7-2.68-8.28-9-9.11-10.95a13,13,0,0,0,7,1.82c.72-.05,1.59-.32,1.71-1a1.26,1.26,0,0,0-.55-1.13,5,5,0,0,0-1.19-.57c-2.74-1.12-4.71-3.64-7.41-4.85-1-.47-2.16-.73-3.2-1.18-2.31-1-3.25-3.12-4.28-5.24a188.21,188.21,0,0,1-8.39-22.78L366.33,138C367.37,130.63,364.5,116.25,357.81,116.25Z" style="fill:#ffa8a7"></path><path d="M357.81,115.27c-2.32.64-4.32,1.44-7.3,8.43s-9.05,33.33-10.2,37.22-2.22,8.71-1,11.8a85.24,85.24,0,0,0,5.12,9.28,22.06,22.06,0,0,1,7.45-4.93c4.47-1.72,6.8-.51,6.8-.51l-1.41-6.82,10-31.27C367.92,132.38,367.91,116.57,357.81,115.27Z" style="fill:#455a64"></path></g></g><g id="freepik--Desk--inject-5"><g id="freepik--desk--inject-5"><g id="freepik--desk--inject-5"><polygon points="177.75 336.19 97.06 289.72 266.36 191.98 347.05 238.45 177.75 336.19" style="fill:#979aca"></polygon><polygon points="177.75 336.19 97.06 289.72 266.36 191.98 347.05 238.45 177.75 336.19" style="opacity:0.30000000000000004"></polygon><polygon points="97.06 289.72 97.06 396.61 101.93 399.42 101.93 320.54 172.88 361.38 172.88 440.27 177.75 443.08 177.75 336.19 97.06 289.72" style="fill:#979aca"></polygon><polygon points="97.06 289.72 97.06 396.61 101.93 399.42 101.93 320.54 172.88 361.38 172.88 440.27 177.75 443.08 177.75 336.19 97.06 289.72" style="opacity:0.5"></polygon><polygon points="101.93 399.42 106.8 396.61 106.8 323.35 101.93 320.54 101.93 399.42" style="fill:#979aca"></polygon><polygon points="101.93 399.42 106.8 396.61 106.8 323.35 101.93 320.54 101.93 399.42" style="opacity:0.6000000000000001"></polygon><polygon points="177.75 443.08 182.62 440.27 182.62 361.38 342.18 269.27 342.18 348.15 347.05 345.34 347.05 238.45 177.75 336.19 177.75 443.08" style="fill:#979aca"></polygon><polygon points="177.75 443.08 182.62 440.27 182.62 361.38 342.18 269.27 342.18 348.15 347.05 345.34 347.05 238.45 177.75 336.19 177.75 443.08" style="opacity:0.4"></polygon><polygon points="342.18 348.15 337.31 345.34 337.31 272.08 342.18 269.27 342.18 348.15" style="fill:#979aca"></polygon><g style="opacity:0.6000000000000001"><polygon points="342.18 348.15 337.31 345.34 337.31 272.08 342.18 269.27 342.18 348.15"></polygon></g></g><g id="freepik--Sheets--inject-5"><g style="opacity:0.2"><path d="M151.08,273.4l35.85,20.7a2.25,2.25,0,0,0,2,0l26.38-15.23a.62.62,0,0,0,0-1.17L179.48,257a2.22,2.22,0,0,0-2,0l-26.39,15.24A.61.61,0,0,0,151.08,273.4Z"></path></g><path d="M151.08,271.53l35.85,20.7a2.25,2.25,0,0,0,2,0L215.33,277c.56-.32.56-.84,0-1.17l-35.85-20.69a2.16,2.16,0,0,0-2,0l-26.39,15.23A.61.61,0,0,0,151.08,271.53Z" style="fill:#ebebeb"></path><path d="M177.47,255.14,152.41,269.6l34.52,19.93a2.25,2.25,0,0,0,2,0L214,275.07l-34.52-19.93A2.16,2.16,0,0,0,177.47,255.14Z" style="fill:#e0e0e0"></path><path d="M151.08,267.89l35.85,20.7a2.25,2.25,0,0,0,2,0l26.38-15.24a.61.61,0,0,0,0-1.16l-35.85-20.7a2.22,2.22,0,0,0-2,0l-26.39,15.23A.62.62,0,0,0,151.08,267.89Z" style="fill:#fafafa"></path></g><g id="freepik--Pen--inject-5"><path d="M127.2,282.28l26.57,15.35,4.54.92a.14.14,0,0,0,.15-.2L157,295.74l-26.58-15.35C129.57,279.87,126.5,281.87,127.2,282.28Z" style="opacity:0.2"></path><g id="freepik--pen--inject-5"><path d="M130.12,277.82l.14.05-.26-.14-.05,0h0l-.05,0h-.06l-.07,0h-.08a1.06,1.06,0,0,0-.55.17,2.67,2.67,0,0,0-1.21,2.1,1.48,1.48,0,0,0,0,.31.43.43,0,0,1,0,0v0s0,0,0,.06a.77.77,0,0,0,.1.18l0,0h0l0,0,.05,0,0,0h0l.29.17-.13-.1a1,1,0,0,0,.7-.15,2.72,2.72,0,0,0,1.22-2.11A.94.94,0,0,0,130.12,277.82Zm-1.8,2.91h0Z" style="fill:#979aca"></path><path d="M155.64,292.52l-1.72,3-.29-.17-25.07-14.47-.13-.1a1,1,0,0,1-.22-.69,2.67,2.67,0,0,1,1.22-2.11,1.1,1.1,0,0,1,.54-.16h.15l.14.05h0Z" style="fill:#f0f0f0"></path><path d="M154.77,292.61c.68-.39,1.22-.08,1.22.7a2.67,2.67,0,0,1-1.22,2.11c-.67.39-1.21.07-1.21-.7A2.67,2.67,0,0,1,154.77,292.61Z" style="fill:#979aca"></path><path d="M157.39,294.42l0,0-1.55-1.71h0l0,0h0a.8.8,0,0,0-1,0,2.67,2.67,0,0,0-1.21,2.11c0,.45.18.74.47.83h0l.09,0h0l2.25.49a.53.53,0,0,0,.39-.08,1.52,1.52,0,0,0,.7-1.21A.53.53,0,0,0,157.39,294.42Z" style="fill:#e0e0e0"></path><path d="M137.49,283.33h0l-.05,0a.33.33,0,0,0-.28,0,1,1,0,0,0-.43.75.33.33,0,0,0,.1.26h0l0,0,18.5,10.68,1.22-.71Z" style="fill:#455a64"></path><path d="M153.67,294.07l1.71,1,1.22-.71L154.27,293A2.9,2.9,0,0,0,153.67,294.07Z" style="fill:#37474f"></path><path d="M158,295.23h0l-1.41-1.55,0-.05a.58.58,0,0,0-.7,0,1.91,1.91,0,0,0-.86,1.49.56.56,0,0,0,.33.59h.07l2.07.45h0a.32.32,0,0,0,.22-.05.86.86,0,0,0,.39-.68A.28.28,0,0,0,158,295.23Z" style="fill:#979aca"></path><path d="M158,295.23h0l-1.41-1.55,0-.05a.58.58,0,0,0-.7,0,1.91,1.91,0,0,0-.86,1.49.56.56,0,0,0,.33.59h.07l2.07.45h0a.32.32,0,0,0,.22-.05.86.86,0,0,0,.39-.68A.28.28,0,0,0,158,295.23Z" style="opacity:0.1"></path><path d="M158.08,295.45a.86.86,0,0,1-.39.68.32.32,0,0,1-.22.05h0l-1.05-.23c-.16,0-.27-.19-.27-.44a1.37,1.37,0,0,1,.63-1.08.4.4,0,0,1,.5,0l0,0,.7.77h0A.28.28,0,0,1,158.08,295.45Z" style="fill:#979aca"></path><path d="M157.69,295.23c.22-.13.39,0,.39.22a.86.86,0,0,1-.39.68c-.22.12-.39,0-.39-.23A.83.83,0,0,1,157.69,295.23Z" style="opacity:0.1"></path><path d="M132.89,280.67a.3.3,0,0,0-.31,0,1,1,0,0,0-.43.75.32.32,0,0,0,.13.28h0l4.55,2.62a.33.33,0,0,1-.1-.26,1,1,0,0,1,.43-.75.33.33,0,0,1,.28,0Z" style="fill:#fafafa"></path><path d="M133,281a.93.93,0,0,1-.43.74.28.28,0,0,1-.3,0,.29.29,0,0,1-.13-.27,1,1,0,0,1,.43-.75.3.3,0,0,1,.31,0A.31.31,0,0,1,133,281Z" style="fill:#f5f5f5"></path><path d="M132.05,279.1h0v0l-1.8-1,0,0h0a.78.78,0,0,0-.74.09,2.42,2.42,0,0,0-1.1,1.9.76.76,0,0,0,.32.71h0l1.82,1h0a.77.77,0,0,0,.76-.08,2.42,2.42,0,0,0,1.1-1.9A.8.8,0,0,0,132.05,279.1Z" style="fill:#979aca"></path><path d="M132.05,279.1h0v0l-1.8-1,0,0h0a.78.78,0,0,0-.74.09,2.42,2.42,0,0,0-1.1,1.9.76.76,0,0,0,.32.71h0l1.82,1h0a.77.77,0,0,0,.76-.08,2.42,2.42,0,0,0,1.1-1.9A.8.8,0,0,0,132.05,279.1Z" style="opacity:0.05"></path><path d="M131.25,279.17c.61-.35,1.1-.07,1.1.63a2.42,2.42,0,0,1-1.1,1.9c-.6.35-1.09.06-1.09-.64A2.43,2.43,0,0,1,131.25,279.17Z" style="opacity:0.1"></path><path d="M158.58,295.88h0l-.74-.45h0a.14.14,0,0,0-.15,0,.44.44,0,0,0-.2.34c0,.07,0,.11.06.13h0l.74.45h0a.33.33,0,0,0,.14,0,.29.29,0,0,0,.28-.29A.28.28,0,0,0,158.58,295.88Z" style="fill:#455a64"></path><path d="M158.62,295.91h0l0,0h0a.16.16,0,0,0-.13,0,.46.46,0,0,0-.2.35.14.14,0,0,0,.06.13h0l.09,0a.29.29,0,0,0,.28-.29A.27.27,0,0,0,158.62,295.91Z" style="fill:#263238"></path></g></g><g id="freepik--shadow--inject-5" style="opacity:0.2"><path d="M185.25,314.17c4.18,2.41,4.18,6.33,0,8.75a16.8,16.8,0,0,1-15.16,0c-4.18-2.42-4.18-6.34,0-8.75A16.74,16.74,0,0,1,185.25,314.17Z"></path></g><g id="freepik--Pot--inject-5"><path d="M183.78,318.89c3.38-3.45,5.36-12.06,2.07-14.79H169.07c-3.29,2.73-1.31,11.34,2.07,14.79l.09.09.12.12.3.27.09.06.25.19a3,3,0,0,0,.44.28,11.08,11.08,0,0,0,10.06,0h0a4.08,4.08,0,0,0,.44-.28l.24-.18.1-.08a3.73,3.73,0,0,0,.3-.26l.13-.13Z" style="fill:#ebebeb"></path><path d="M170.53,303c-3.83,2.21-3.83,5.79,0,8a15.32,15.32,0,0,0,13.86,0c3.83-2.21,3.83-5.79,0-8A15.32,15.32,0,0,0,170.53,303Z" style="fill:#fafafa"></path><path d="M173.24,304.56c-2.32,1.35-2.32,3.53,0,4.87a9.36,9.36,0,0,0,8.44,0c2.32-1.34,2.32-3.52,0-4.87A9.36,9.36,0,0,0,173.24,304.56Z" style="fill:#ebebeb"></path><path d="M181.68,306.87a9.36,9.36,0,0,0-8.44,0,4,4,0,0,0-1.39,1.28,3.87,3.87,0,0,0,1.39,1.28,9.36,9.36,0,0,0,8.44,0,3.87,3.87,0,0,0,1.39-1.28A4,4,0,0,0,181.68,306.87Z" style="fill:#455a64"></path><path d="M185.53,298.58a8.07,8.07,0,1,0-11.93,7.09,2.31,2.31,0,0,1,1.16,2v.14c1.07.6,4.74.55,5.4,0v-.15a2.41,2.41,0,0,1,1.28-2.09A8.09,8.09,0,0,0,185.53,298.58Z" style="fill:#979aca"></path><path d="M177.82,291.54a.23.23,0,0,1-.17-.07,3,3,0,0,0-.35-.32.24.24,0,0,1,0-.35.25.25,0,0,1,.35,0s.15.13.38.36a.25.25,0,0,1-.18.42Z" style="fill:#fafafa"></path><path d="M179.2,305.93a.23.23,0,0,1-.11,0,.25.25,0,0,1-.11-.33c.15-.31.33-.63.52-.94a.26.26,0,0,1,.35-.07.25.25,0,0,1,.08.34c-.19.3-.36.6-.51.89A.24.24,0,0,1,179.2,305.93Zm1.44-2.79h-.08a.26.26,0,0,1-.16-.32c.1-.31.19-.64.27-1a.25.25,0,0,1,.3-.19.25.25,0,0,1,.19.3c-.08.35-.18.7-.29,1A.23.23,0,0,1,180.64,303.14Zm.53-3.08h0a.25.25,0,0,1-.24-.26c0-.15,0-.29,0-.43s0-.4,0-.6a.25.25,0,0,1,.24-.26.23.23,0,0,1,.26.24c0,.2,0,.41,0,.62s0,.3,0,.44A.26.26,0,0,1,181.17,300.06Zm-.28-3.13a.26.26,0,0,1-.25-.19,8,8,0,0,0-.27-1,.25.25,0,0,1,.16-.31.24.24,0,0,1,.32.16,9.63,9.63,0,0,1,.28,1,.25.25,0,0,1-.19.3ZM179.75,294a.25.25,0,0,1-.22-.12A9.9,9.9,0,0,0,179,293a.25.25,0,0,1,.06-.34.24.24,0,0,1,.35.06,9.66,9.66,0,0,1,.58.89.26.26,0,0,1-.09.35Z" style="fill:#fafafa"></path><path d="M178.57,308.43a.24.24,0,0,1-.24-.21,1.7,1.7,0,0,1,0-.56.25.25,0,0,1,.27-.22.25.25,0,0,1,.23.27,2.11,2.11,0,0,0,0,.44.25.25,0,0,1-.21.28Z" style="fill:#fafafa"></path><path d="M177.46,308.43a.25.25,0,0,1-.25-.25v-.5a.25.25,0,0,1,.5,0v.5A.25.25,0,0,1,177.46,308.43Z" style="fill:#fafafa"></path><path d="M177.46,306a.25.25,0,0,1-.25-.25v-.95a.25.25,0,0,1,.5,0v.95A.25.25,0,0,1,177.46,306Zm0-2.86a.25.25,0,0,1-.25-.25v-1a.25.25,0,0,1,.5,0v1A.25.25,0,0,1,177.46,303.16Zm0-2.86a.25.25,0,0,1-.25-.25v-1a.25.25,0,0,1,.5,0v1A.25.25,0,0,1,177.46,300.3Zm0-2.87a.25.25,0,0,1-.25-.25v-.95a.25.25,0,0,1,.5,0v.95A.25.25,0,0,1,177.46,297.43Zm0-2.86a.25.25,0,0,1-.25-.25v-.95a.25.25,0,0,1,.5,0v.95A.25.25,0,0,1,177.46,294.57Z" style="fill:#fafafa"></path><path d="M177.46,291.71a.25.25,0,0,1-.25-.25V291a.25.25,0,0,1,.5,0v.5A.25.25,0,0,1,177.46,291.71Z" style="fill:#fafafa"></path><path d="M181.18,306A.27.27,0,0,1,181,306a.26.26,0,0,1,0-.36c.2-.23.39-.47.58-.72a.25.25,0,0,1,.35-.06.25.25,0,0,1,.05.35,9.21,9.21,0,0,1-.61.76A.23.23,0,0,1,181.18,306Zm1.63-2.45a.2.2,0,0,1-.11,0,.25.25,0,0,1-.12-.34c.15-.29.28-.59.4-.89a.25.25,0,0,1,.47.18c-.13.32-.27.63-.42.94A.24.24,0,0,1,182.81,303.58Zm1-2.83h-.05a.24.24,0,0,1-.19-.29c.06-.32.11-.64.15-1a.25.25,0,0,1,.27-.22.25.25,0,0,1,.22.28c0,.33-.09.67-.15,1A.26.26,0,0,1,183.78,300.75Zm.18-3a.25.25,0,0,1-.25-.23,6.13,6.13,0,0,0-.15-.94.26.26,0,0,1,.18-.31.27.27,0,0,1,.31.19,7,7,0,0,1,.16,1,.25.25,0,0,1-.23.27Zm-.9-2.83a.26.26,0,0,1-.22-.13,8,8,0,0,0-.54-.8.25.25,0,0,1,.4-.3,7.88,7.88,0,0,1,.57.85.26.26,0,0,1-.09.35A.27.27,0,0,1,183.06,294.93Zm-1.95-2.26a.3.3,0,0,1-.16-.05,8.14,8.14,0,0,0-.79-.56.25.25,0,1,1,.26-.42,6.71,6.71,0,0,1,.84.59.24.24,0,0,1,0,.35A.25.25,0,0,1,181.11,292.67Zm-2.66-1.34h-.06a4.36,4.36,0,0,0-.93-.11.25.25,0,1,1,0-.5,4.83,4.83,0,0,1,1,.12.25.25,0,0,1,.18.3A.25.25,0,0,1,178.45,291.33Z" style="fill:#fafafa"></path><path d="M177.1,291.54a.25.25,0,0,1-.18-.42c.23-.23.38-.36.38-.36a.25.25,0,0,1,.35,0,.24.24,0,0,1,0,.35,4.4,4.4,0,0,0-.35.32A.23.23,0,0,1,177.1,291.54Z" style="fill:#fafafa"></path><path d="M175.72,305.93a.24.24,0,0,1-.22-.14c-.15-.29-.32-.59-.51-.89a.25.25,0,0,1,.08-.34.26.26,0,0,1,.35.07c.19.31.37.63.52.94a.24.24,0,0,1-.11.33A.23.23,0,0,1,175.72,305.93Zm-1.44-2.79a.23.23,0,0,1-.23-.17c-.11-.33-.21-.68-.29-1a.25.25,0,0,1,.19-.3.25.25,0,0,1,.3.19c.08.34.17.67.27,1a.26.26,0,0,1-.16.32Zm-.53-3.08a.26.26,0,0,1-.25-.25v-.44c0-.21,0-.42,0-.62a.24.24,0,0,1,.26-.24.25.25,0,0,1,.24.26c0,.2,0,.4,0,.6v.43a.25.25,0,0,1-.24.26Zm.28-3.13H174a.26.26,0,0,1-.19-.3,9.63,9.63,0,0,1,.28-1,.24.24,0,0,1,.32-.16.25.25,0,0,1,.16.31,8,8,0,0,0-.27,1A.26.26,0,0,1,174,296.93Zm1.15-2.91a.28.28,0,0,1-.13,0,.26.26,0,0,1-.09-.35c.18-.3.37-.6.58-.89a.25.25,0,0,1,.41.28,9.9,9.9,0,0,0-.56.87A.25.25,0,0,1,175.18,294Z" style="fill:#fafafa"></path><path d="M176.35,308.43h0a.25.25,0,0,1-.21-.28,2.11,2.11,0,0,0,0-.44.25.25,0,0,1,.23-.27.25.25,0,0,1,.27.22,2.47,2.47,0,0,1,0,.56A.26.26,0,0,1,176.35,308.43Z" style="fill:#fafafa"></path><path d="M173.75,306a.25.25,0,0,1-.19-.09,9.21,9.21,0,0,1-.61-.76.25.25,0,0,1,.05-.35.25.25,0,0,1,.35.06c.19.25.38.49.58.72a.25.25,0,0,1,0,.35A.23.23,0,0,1,173.75,306Zm-1.64-2.45a.24.24,0,0,1-.22-.14c-.15-.31-.29-.62-.41-.94a.24.24,0,0,1,.14-.32.25.25,0,0,1,.32.14c.12.3.25.6.4.9a.25.25,0,0,1-.11.33Zm-1-2.83a.24.24,0,0,1-.24-.2,9.19,9.19,0,0,1-.16-1,.25.25,0,0,1,.22-.28.26.26,0,0,1,.28.22,8.13,8.13,0,0,0,.15,1,.26.26,0,0,1-.2.29Zm-.18-3h0a.25.25,0,0,1-.23-.27,6,6,0,0,1,.17-1,.25.25,0,0,1,.3-.19.26.26,0,0,1,.18.31,6.13,6.13,0,0,0-.15.94A.25.25,0,0,1,171,297.76Zm.9-2.83a.27.27,0,0,1-.12,0,.26.26,0,0,1-.09-.35,7.88,7.88,0,0,1,.57-.85.24.24,0,0,1,.35-.05.25.25,0,0,1,.05.35,8,8,0,0,0-.54.8A.25.25,0,0,1,171.86,294.93Zm1.95-2.26a.25.25,0,0,1-.19-.09.24.24,0,0,1,0-.35,6.71,6.71,0,0,1,.84-.59.25.25,0,1,1,.26.42,8.14,8.14,0,0,0-.79.56A.3.3,0,0,1,173.81,292.67Zm2.66-1.34a.25.25,0,0,1-.24-.2.26.26,0,0,1,.18-.3,4.83,4.83,0,0,1,1.05-.12.25.25,0,0,1,0,.5,4.36,4.36,0,0,0-.93.11Z" style="fill:#fafafa"></path></g><g id="freepik--Pencil--inject-5"><path id="freepik--shadow--inject-5" d="M148.58,301.26c-.32.89-1.28,1.45-2.87,1.65l-22.66-13.27-3-3a.23.23,0,0,1,.24-.38l5.42,1.8Z" style="opacity:0.2"></path><path d="M125.55,286.06l-4.83-.95a.15.15,0,0,0-.14.25l3.28,3.71Z" style="fill:#ffa8a7"></path><path d="M120.58,285.36a.15.15,0,0,1,.14-.25l1,.19h0a.8.8,0,0,0-.39.77v.08Z" style="fill:#263238"></path><path d="M141.86,299.39l-.39-.22-.48-.27-17.13-9.83a2.22,2.22,0,0,1,.13-1.6,2.26,2.26,0,0,1,1.56-1.41l17.12,9.82.91.52C143,296.1,141.26,299.08,141.86,299.39Z" style="fill:#455a64"></path><path d="M140.36,298.54l-.89-.51c-.26-.14-.11-.78.2-1.44.4-.88,1.19-1.73,1.54-1.55l.65.38.23.13c-.35-.18-1.14.67-1.54,1.55-.29.63-.44,1.25-.22,1.42h0Z" style="fill:#ebebeb"></path><path d="M140.14,298.41c-.61-.32,1.12-3.31,1.73-3l.88.51c-.6-.32-2.33,2.66-1.73,3Z" style="fill:#979aca"></path><path d="M141.86,299.39l-.87-.49c-.6-.32,1-3.21,1.68-3l0,0,.87.5C143,296.1,141.26,299.08,141.86,299.39Z" style="fill:#ebebeb"></path><path d="M120.56,285.2l.16-.09,3.51,1.92,18.11,10.39c0-.05.06-.05.09,0-.52.81-.91,1.82-.57,2l-.39-.22-.48-.27-17.13-9.83h0l-3.28-3.71A.16.16,0,0,1,120.56,285.2Z" style="opacity:0.15"></path><path d="M145.56,301.51l-3.7-2.12c-.26-.13-.11-.76.19-1.42.4-.88,1.18-1.74,1.53-1.57h0l3.71,2.12c.74.43.06,2-.76,2.74A.9.9,0,0,1,145.56,301.51Z" style="fill:#f28f8f"></path><path d="M145.34,300.36a2.68,2.68,0,0,1,1.51-1.82.59.59,0,0,1,.56.07c.55.52-.09,2-.87,2.66a.89.89,0,0,1-1,.25C145.31,301.36,145.2,300.93,145.34,300.36Z" style="opacity:0.1"></path></g><g id="freepik--Coffee--inject-5"><path id="freepik--shadow--inject-5" d="M223.84,284.93c-3.89,2.15-3.89,5.64,0,7.79a16.13,16.13,0,0,0,14.06,0c3.89-2.15,3.89-5.64,0-7.79A16.13,16.13,0,0,0,223.84,284.93Z" style="opacity:0.1"></path><g id="freepik--coffee--inject-5"><path d="M236.9,272.21a20.42,20.42,0,0,0-12.38.32c-3.32,1.36-3.27,3.44.12,4.63a20.39,20.39,0,0,0,12.38-.32C240.46,275.47,240.41,273.4,236.9,272.21Z" style="fill:#263238"></path><path d="M239.56,267.92l-17.83.48,1.9,21h0c.11.76.84,1.5,2.22,2a15.73,15.73,0,0,0,10.69-.27c1.4-.62,2.12-1.4,2.19-2.16h0Z" style="fill:#fafafa"></path><path d="M221.73,268.4l.39,4.26a7.32,7.32,0,0,0,1.51.76,21.63,21.63,0,0,0,14.2-.36l.47-.23a10.27,10.27,0,0,0,1.1-.66l.16-4.25Z" style="fill:#ebebeb"></path><path d="M240.71,268.52l-.09-3.22-2.08.06c-.28-.14-.58-.27-.92-.4a21.65,21.65,0,0,0-14.2.37,8.58,8.58,0,0,0-.86.44l-2,.05.08,3.22h0c0,1,1,2.06,3,2.81a21.63,21.63,0,0,0,14.2-.37C239.76,270.63,240.73,269.56,240.71,268.52Z" style="fill:#37474f"></path><path d="M237.56,262.49a21.68,21.68,0,0,0-14.21.37c-3.81,1.69-3.74,4.28.15,5.78a21.66,21.66,0,0,0,14.21-.37C241.65,266.57,241.59,264,237.56,262.49Z" style="fill:#455a64"></path><path d="M238.76,264.58h0l-.71-2.63-5.1.13a21,21,0,0,0-5.07.13l-4.95.13-.58,2.66h0c-.3,1,.49,2,2.37,2.65a18.56,18.56,0,0,0,11.71-.3C238.35,266.56,239.11,265.53,238.76,264.58Z" style="fill:#37474f"></path><path d="M235.79,260.31a18,18,0,0,0-10.76.28c-2.89,1.17-2.84,3,.11,4a18,18,0,0,0,10.75-.28C238.88,263.11,238.83,261.33,235.79,260.31Z" style="fill:#455a64"></path><path d="M237.06,262.27a.93.93,0,0,1-.33.39,5,5,0,0,1-1.22.66,15.89,15.89,0,0,1-5,.89,14.81,14.81,0,0,1-5-.63,4.52,4.52,0,0,1-1.22-.6c-.25-.19-.32-.34-.32-.37s.25-.55,1.48-1.05a15.12,15.12,0,0,1,5-.89,15.59,15.59,0,0,1,5.08.63C236.72,261.73,237.05,262.18,237.06,262.27Z" style="fill:#263238"></path><path d="M236.73,262.66a5,5,0,0,1-1.22.66,15.89,15.89,0,0,1-5,.89,14.81,14.81,0,0,1-5-.63,4.52,4.52,0,0,1-1.22-.6,4.6,4.6,0,0,1,1.18-.66,14.86,14.86,0,0,1,5-.89,15.59,15.59,0,0,1,5.08.63A4.67,4.67,0,0,1,236.73,262.66Z" style="fill:#37474f"></path><g style="opacity:0.5"><path d="M233.71,262.8a1.51,1.51,0,0,1,1.19-.25c.22.11,0,.42-.39.69a1.51,1.51,0,0,1-1.18.26C233.1,263.37,233.27,263.06,233.71,262.8Z"></path></g><path d="M222.77,282.61c0,.79.83,1.56,2.43,2.12a19.28,19.28,0,0,0,11.66-.3c1.62-.65,2.42-1.46,2.4-2.25l.31-7.72c0,.84-.83,1.7-2.55,2.38a20.39,20.39,0,0,1-12.38.32c-1.69-.59-2.56-1.41-2.58-2.25Z" style="fill:#455a64"></path><path d="M228.22,282.92a12.57,12.57,0,0,1-.73-1.29,3.82,3.82,0,0,0-2.06-1.72.23.23,0,0,0-.31.12,3,3,0,0,0,3.86,3.71c.05,0,.07-.13,0-.15A2.58,2.58,0,0,1,228.22,282.92Z" style="fill:#979aca"></path><path d="M225.91,279.65a4.5,4.5,0,0,1,1.29.75,3.8,3.8,0,0,1,1,1.23,3.83,3.83,0,0,0,1.2,1.51.25.25,0,0,0,.35-.06,2.66,2.66,0,0,0-.71-3.24,2.74,2.74,0,0,0-3.13-.63A.25.25,0,0,0,225.91,279.65Z" style="fill:#979aca"></path></g></g><path id="freepik--shadow--inject-5" d="M251.48,273.68l66.23-38.24a2.94,2.94,0,0,1,2.62,0l2.29,1.33c.73.42.73,1.1,0,1.51L256.4,276.52a2.88,2.88,0,0,1-2.62,0l-2.3-1.33A.8.8,0,0,1,251.48,273.68Z" style="opacity:0.2"></path><g id="freepik--Device--inject-5"><path d="M201.93,243.29v-.44a2.46,2.46,0,0,1,1.12-1.93L268.78,203a2.44,2.44,0,0,1,2.23,0l13.45,7.77a2.45,2.45,0,0,1,1.12,1.93v.44a2.45,2.45,0,0,1-1.12,1.93l-65.73,38a2.44,2.44,0,0,1-2.23,0l-13.45-7.77A2.45,2.45,0,0,1,201.93,243.29Z" style="fill:#979aca"></path><g style="opacity:0.5"><path d="M201.93,243.29v-.44a2.46,2.46,0,0,1,1.12-1.93L268.78,203a2.44,2.44,0,0,1,2.23,0l13.45,7.77a2.45,2.45,0,0,1,1.12,1.93v.44a2.45,2.45,0,0,1-1.12,1.93l-65.73,38a2.44,2.44,0,0,1-2.23,0l-13.45-7.77A2.45,2.45,0,0,1,201.93,243.29Z" style="fill:#fff"></path></g><path d="M203.05,242.21,216.5,250a2.44,2.44,0,0,0,2.23,0L284.46,212a.67.67,0,0,0,0-1.28L271,203a2.44,2.44,0,0,0-2.23,0l-65.73,37.95A.68.68,0,0,0,203.05,242.21Z" style="fill:#979aca"></path><g style="opacity:0.8"><path d="M203.05,242.21,216.5,250a2.44,2.44,0,0,0,2.23,0L284.46,212a.67.67,0,0,0,0-1.28L271,203a2.44,2.44,0,0,0-2.23,0l-65.73,37.95A.68.68,0,0,0,203.05,242.21Z" style="fill:#fff"></path></g><path d="M318.23,222.9,323,165.25a5.43,5.43,0,0,0-2.38-4.77,6,6,0,0,0-5.46.1L252,197a7,7,0,0,0-3.08,4.87l-4.76,57.65a5.43,5.43,0,0,0,2.38,4.77,6,6,0,0,0,5.46-.1l63.14-36.45A7,7,0,0,0,318.23,222.9Z" style="fill:#979aca"></path><path d="M318.23,222.9,323,165.25a5.43,5.43,0,0,0-2.38-4.77,6,6,0,0,0-5.46.1L252,197a7,7,0,0,0-3.08,4.87l-4.76,57.65a5.43,5.43,0,0,0,2.38,4.77,6,6,0,0,0,5.46-.1l63.14-36.45A7,7,0,0,0,318.23,222.9Z" style="fill:#fff;opacity:0.5"></path><path d="M318.23,222.9,323,165.25a5.43,5.43,0,0,0-2.38-4.77,6,6,0,0,0-5.46.1L252,197A6.34,6.34,0,0,0,250,199.1l9.81,5.66v55l55.38-32A7,7,0,0,0,318.23,222.9Z" style="fill:#979aca"></path><path d="M318.23,222.9,323,165.25a5.43,5.43,0,0,0-2.38-4.77,6,6,0,0,0-5.46.1L252,197A6.34,6.34,0,0,0,250,199.1l9.81,5.66v55l55.38-32A7,7,0,0,0,318.23,222.9Z" style="fill:#fff;opacity:0.8"></path><path d="M249.45,262.61,254.21,205a7,7,0,0,1,3.08-4.87l63.14-36.45c1.56-.9,2.7-.17,2.55,1.62l-4.75,57.65a7,7,0,0,1-3.09,4.87L252,264.22C250.45,265.12,249.3,264.4,249.45,262.61Z" style="fill:#979aca"></path><path d="M249.45,262.61,254.21,205a7,7,0,0,1,3.08-4.87l63.14-36.45c1.56-.9,2.7-.17,2.55,1.62l-4.75,57.65a7,7,0,0,1-3.09,4.87L252,264.22C250.45,265.12,249.3,264.4,249.45,262.61Z" style="fill:#fff;opacity:0.65"></path><path d="M282,216.35a11,11,0,0,1,4.62-7.77c2.31-1.33,4,0,3.74,2.93a11,11,0,0,1-4.63,7.76C283.47,220.61,281.79,219.3,282,216.35Z" style="fill:#979aca"></path><polygon points="283.52 233.78 299.04 224.76 296.4 223.23 280.89 232.26 283.52 233.78" style="fill:#979aca"></polygon><g style="opacity:0.85"><polygon points="283.52 233.78 299.04 224.76 296.4 223.23 280.89 232.26 283.52 233.78" style="fill:#fff"></polygon></g><path d="M306.24,251.23l-18.89,10.91a2.36,2.36,0,0,1-1.22.27,2.27,2.27,0,0,1-1-.26h0l-8.32-4.81,0,0a2.45,2.45,0,0,1-1.08-1.93v-.44c0-.72.49-1,1.12-.65l5,2.89,1.12.65-.24-1.28-1.77-24.29,2.63,1.52,15.53-9,8.08,24.53A2,2,0,0,1,306.24,251.23Z" style="fill:#979aca"></path><g style="opacity:0.5"><path d="M306.24,251.23l-18.89,10.91a2.36,2.36,0,0,1-1.22.27,2.27,2.27,0,0,1-1-.26h0l-8.32-4.81,0,0a2.45,2.45,0,0,1-1.08-1.93v-.44c0-.72.49-1,1.12-.65l5,2.89,1.12.65-.24-1.28-1.77-24.29,2.63,1.52,15.53-9,8.08,24.53A2,2,0,0,1,306.24,251.23Z" style="fill:#fff"></path></g><polygon points="275.99 254.19 282.43 250.47 283.74 259.15 275.99 254.19" style="fill:#979aca"></polygon><g style="opacity:0.25"><polygon points="275.99 254.19 282.43 250.47 283.74 259.15 275.99 254.19"></polygon></g><path d="M283.52,233.78l-2.63-1.52,1.77,24.29c.14.71-.26,1-.88.63l-5-2.89c-.63-.37-1.12-.07-1.12.65v.44a2.45,2.45,0,0,0,1.08,1.93l0,0,8.32,4.81h0a2.27,2.27,0,0,0,1,.26Z" style="fill:#979aca"></path><g style="opacity:0.25"><path d="M283.52,233.78l-2.63-1.52,1.77,24.29c.14.71-.26,1-.88.63l-5-2.89c-.63-.37-1.12-.07-1.12.65v.44a2.45,2.45,0,0,0,1.08,1.93l0,0,8.32,4.81h0a2.27,2.27,0,0,0,1,.26Z" style="fill:#fff"></path></g></g></g></g><g id="freepik--Files--inject-5"><g id="freepik--files--inject-5"><path d="M124.89,411.13a.69.69,0,0,0,.41-.57v-.88l-42.56-24a2.16,2.16,0,0,0-2,0L42.5,407.73l44.15,25.48Z" style="fill:#979aca"></path><path d="M124.89,411.13a.69.69,0,0,0,.41-.57v-.88l-42.56-24a2.16,2.16,0,0,0-2,0L42.5,407.73l44.15,25.48Z" style="opacity:0.2"></path><path d="M124.89,410.27c.55-.32.55-.83,0-1.14L82.74,384.79a2.16,2.16,0,0,0-2,0L42.5,406.88l44.15,25.47Z" style="fill:#979aca"></path><path d="M124.89,410.27c.55-.32.55-.83,0-1.14L82.74,384.79a2.16,2.16,0,0,0-2,0L42.5,406.88l44.15,25.47Z" style="opacity:0.5"></path><path d="M51.31,401.1l28.32-16.34a2.16,2.16,0,0,1,2,0l38.88,22.45,3.69-2.15v4.36l-.07,0a.6.6,0,0,1-.34.78L91.33,429,47.18,403.49v-4.77Z" style="fill:#ebebeb"></path><path d="M123.77,405.47a.6.6,0,0,0,0-1.14L81.61,380a2.22,2.22,0,0,0-2,0L47.18,398.72l44.15,25.47Z" style="fill:#fafafa"></path><polygon points="91.33 424.19 91.33 428.96 47.17 403.49 47.17 398.72 91.33 424.19" style="fill:#e6e6e6"></polygon><path d="M90.8,422.33a1.16,1.16,0,0,0,.37.13,1.26,1.26,0,0,0,.58,0,.62.62,0,0,0,.19-.07c.29-.16.26-.46-.08-.65a1.31,1.31,0,0,0-.52-.15,1,1,0,0,0-.62.1.08.08,0,0,0,0,.05C90.44,421.9,90.48,422.15,90.8,422.33Z" style="fill:#263238"></path><path d="M85.81,426.06a2.58,2.58,0,0,0,.5,1.65,1.78,1.78,0,0,0,1.42.67h0a2.69,2.69,0,0,0,1.37-.41,1.65,1.65,0,0,0,.25-.15l-.56-.32c-1.35.76-2.42.12-2.42-1.44a5.43,5.43,0,0,1,2.45-4.24,1.6,1.6,0,0,1,1.84-.09,1.28,1.28,0,0,1,.5.73,1.26,1.26,0,0,0,.58,0,2,2,0,0,0-.41-.87,1.75,1.75,0,0,0-1.42-.67,2.74,2.74,0,0,0-1.38.42A6,6,0,0,0,85.81,426.06Z" style="fill:#263238"></path><path d="M87.23,421.56,125.3,403v.62a1.1,1.1,0,0,1-.49.86l-37.58,18Z" style="fill:#979aca"></path><path d="M87.23,421.56,125.3,403v.62a1.1,1.1,0,0,1-.49.86l-37.58,18Z" style="opacity:0.2"></path><path d="M124.89,403.52a.61.61,0,0,0,0-1.15L82.74,378a2.16,2.16,0,0,0-2,0L42.5,396.4l44.15,25.48Z" style="fill:#979aca"></path><polygon points="86.65 433.21 42.5 407.74 42.5 396.39 86.65 421.88 86.65 433.21" style="fill:#979aca"></polygon><polygon points="86.65 433.21 42.5 407.74 42.5 396.39 86.65 421.88 86.65 433.21" style="opacity:0.1"></polygon><path d="M77.94,425.93a1.81,1.81,0,0,0,1.43-.67,2.63,2.63,0,0,0,.5-1.65,6,6,0,0,0-2.74-4.75,2.8,2.8,0,0,0-1.38-.41c-1.15,0-1.93.94-1.93,2.33a6,6,0,0,0,2.74,4.74,2.8,2.8,0,0,0,1.38.41Z" style="fill:#455a64"></path><path d="M79.3,423.61c0,1.56-1.1,2.19-2.45,1.41a5.4,5.4,0,0,1-2.46-4.24c0-1.57,1.1-2.2,2.45-1.42A5.41,5.41,0,0,1,79.3,423.61Z" style="fill:#f5f5f5"></path><path d="M70.4,417.91v.86c0,1.72-1.21,2.42-2.7,1.56L48.57,409.28a6,6,0,0,1-2.69-4.67v-.85c0-1.72,1.2-2.42,2.69-1.56L67.7,413.25A6,6,0,0,1,70.4,417.91Z" style="fill:#f5f5f5"></path><polygon points="87.24 432.87 87.24 421.59 86.65 421.88 86.65 433.21 87.24 432.87" style="fill:#979aca"></polygon><polygon points="87.24 432.87 87.24 421.59 86.65 421.88 86.65 433.21 87.24 432.87" style="opacity:0.2"></polygon><path d="M42.91,394.63a.89.89,0,0,0,.43.68l43.29,25a.93.93,0,0,0,.86,0l38.8-19.62v-.86L82.16,374.31,43.34,394A.87.87,0,0,0,42.91,394.63Z" style="fill:#979aca"></path><path d="M87.06,419.52v.86a1,1,0,0,1-.43-.1l-43.29-25a.92.92,0,0,1-.43-.68.93.93,0,0,1,.43-.69.27.27,0,0,0,0,.5l43.29,25A.76.76,0,0,0,87.06,419.52Z" style="opacity:0.1"></path><path d="M126.29,399.8,87.5,419.42a.84.84,0,0,1-.44.1.76.76,0,0,1-.43-.1l-43.29-25a.27.27,0,0,1,0-.5l38.82-19.63Z" style="opacity:0.5"></path><path d="M126.29,399.8v.86L87.5,420.28a.84.84,0,0,1-.44.1v-.86a.84.84,0,0,0,.44-.1Z" style="opacity:0.2"></path><polygon points="125.7 400.14 81.55 374.67 81.55 363.32 125.7 388.93 125.7 400.14" style="fill:#979aca"></polygon><polygon points="125.7 400.14 81.55 374.67 81.55 363.32 125.7 388.93 125.7 400.14" style="opacity:0.7000000000000001"></polygon><path d="M43.44,388.53a1.18,1.18,0,0,0-.53.93v2.29a1.2,1.2,0,0,0,.53.94l43.08,24.85a1.21,1.21,0,0,0,1.08,0l32.89-17.79v-3.54L76.35,370.73Z" style="fill:#ebebeb"></path><path d="M76.35,370.73l-32.91,17.8a.33.33,0,0,0,0,.62L86.52,414a1.21,1.21,0,0,0,1.08,0l32.89-17.79Z" style="fill:#fafafa"></path><path d="M116.3,396.49a1.11,1.11,0,0,0,.36.13,1.07,1.07,0,0,0,.59,0,.56.56,0,0,0,.18-.07c.3-.16.26-.46-.08-.65a1.26,1.26,0,0,0-.52-.15,1.1,1.1,0,0,0-.61.1.1.1,0,0,0-.06.05C115.93,396.06,116,396.31,116.3,396.49Z" style="fill:#263238"></path><path d="M87.06,414.12v3.54a1,1,0,0,1-.54-.12L43.44,392.69a1.19,1.19,0,0,1-.53-.93v-2.3a1.19,1.19,0,0,1,.41-.84c-.16.16-.13.38.12.53L86.52,414A.94.94,0,0,0,87.06,414.12Z" style="fill:#e6e6e6"></path><path d="M122.06,391.58a2.18,2.18,0,0,0-2.23.13,7.69,7.69,0,0,0-3,4.51l.74.11a6.94,6.94,0,0,1,2.67-4,1.92,1.92,0,0,1,.93-.29,1,1,0,0,1,.56.15,2.78,2.78,0,0,1,.88,2.52c-.07,2.35-1.41,5-3,5.92a1.74,1.74,0,0,1-1.11.27l-.8.46,0,0a1.79,1.79,0,0,0,.93.26,2.59,2.59,0,0,0,1.3-.39c1.81-1,3.29-3.91,3.36-6.53C123.34,393.23,122.89,392.08,122.06,391.58Z" style="fill:#263238"></path><path d="M42.91,387.42a.91.91,0,0,0,.43.69l43.29,25a.93.93,0,0,0,.86,0l38.8-23.71v-.86L82.16,363,43.34,386.74A.89.89,0,0,0,42.91,387.42Z" style="fill:#979aca"></path><path d="M87.06,412.32v.86a1,1,0,0,1-.43-.1l-43.29-25a.76.76,0,0,1,0-1.37.27.27,0,0,0,0,.5l43.29,25A.76.76,0,0,0,87.06,412.32Z" style="opacity:0.1"></path><path d="M126.29,388.51,87.5,412.22a.84.84,0,0,1-.44.1.76.76,0,0,1-.43-.1l-43.29-25a.27.27,0,0,1,0-.5L82.16,363Z" style="fill:#979aca"></path><path d="M126.29,388.51v.86L87.5,413.08a1,1,0,0,1-.44.1v-.86a.84.84,0,0,0,.44-.1Z" style="opacity:0.2"></path><polygon points="126.29 399.8 126.29 388.52 125.7 388.93 125.7 400.14 126.29 399.8" style="fill:#979aca"></polygon><polygon points="126.29 399.8 126.29 388.52 125.7 388.93 125.7 400.14 126.29 399.8" style="opacity:0.2"></polygon><path d="M124.89,388.33a.67.67,0,0,0,.41-.57v-.88l-42.56-24a2.22,2.22,0,0,0-2,0L42.5,384.94l44.15,25.47Z" style="fill:#979aca"></path><path d="M124.89,388.33a.67.67,0,0,0,.41-.57v-.88l-42.56-24a2.22,2.22,0,0,0-2,0L42.5,384.94l44.15,25.47Z" style="opacity:0.2"></path><path d="M124.89,387.48a.61.61,0,0,0,0-1.15L82.74,362a2.16,2.16,0,0,0-2,0L42.5,384.08l44.15,25.48Z" style="fill:#979aca"></path><path d="M124.89,387.48a.61.61,0,0,0,0-1.15L82.74,362a2.16,2.16,0,0,0-2,0L42.5,384.08l44.15,25.48Z" style="opacity:0.5"></path><path d="M51.31,378.31,79.63,362a2.16,2.16,0,0,1,2,0l38.88,22.44,3.69-2.14v4.36l-.07,0a.6.6,0,0,1-.34.78L91.33,406.17,47.18,380.7v-4.77Z" style="fill:#ebebeb"></path><path d="M123.77,382.68a.6.6,0,0,0,0-1.14L81.61,357.2a2.22,2.22,0,0,0-2,0L47.18,375.93,91.33,401.4Z" style="fill:#fafafa"></path><polygon points="91.33 401.4 91.33 406.17 47.17 380.69 47.17 375.93 91.33 401.4" style="fill:#e6e6e6"></polygon><path d="M90.8,399.54a1.47,1.47,0,0,0,.37.13,1.13,1.13,0,0,0,.58,0,.6.6,0,0,0,.19-.06c.29-.16.26-.46-.08-.66a1.3,1.3,0,0,0-.52-.14,1,1,0,0,0-.62.1.1.1,0,0,0,0,0C90.44,399.11,90.48,399.36,90.8,399.54Z" style="fill:#263238"></path><path d="M85.81,403.27a2.62,2.62,0,0,0,.5,1.65,1.78,1.78,0,0,0,1.42.67h0a2.79,2.79,0,0,0,1.37-.41c.08-.05.17-.09.25-.15l-.56-.32c-1.35.76-2.42.12-2.42-1.44A5.4,5.4,0,0,1,88.83,399a1.62,1.62,0,0,1,1.84-.1,1.28,1.28,0,0,1,.5.74,1.13,1.13,0,0,0,.58,0,1.92,1.92,0,0,0-.41-.86,1.75,1.75,0,0,0-1.42-.67,2.83,2.83,0,0,0-1.38.41A6,6,0,0,0,85.81,403.27Z" style="fill:#263238"></path><path d="M87.23,398.77l38.07-18.61v.62a1.12,1.12,0,0,1-.49.86l-37.58,18Z" style="fill:#979aca"></path><path d="M87.23,398.77l38.07-18.61v.62a1.12,1.12,0,0,1-.49.86l-37.58,18Z" style="opacity:0.2"></path><path d="M124.89,380.72c.55-.31.55-.82,0-1.14L82.74,355.24a2.22,2.22,0,0,0-2,0L42.5,373.61l44.15,25.47Z" style="fill:#979aca"></path><polygon points="86.65 410.41 42.5 384.94 42.5 373.6 86.65 399.09 86.65 410.41" style="fill:#979aca"></polygon><polygon points="86.65 410.41 42.5 384.94 42.5 373.6 86.65 399.09 86.65 410.41" style="opacity:0.1"></polygon><path d="M77.94,403.14a1.79,1.79,0,0,0,1.43-.68,2.6,2.6,0,0,0,.5-1.65,6,6,0,0,0-2.74-4.74,2.8,2.8,0,0,0-1.38-.41c-1.15,0-1.93.93-1.93,2.32a6,6,0,0,0,2.74,4.75,2.8,2.8,0,0,0,1.38.41Z" style="fill:#455a64"></path><path d="M79.3,400.82c0,1.56-1.1,2.19-2.45,1.41A5.41,5.41,0,0,1,74.39,398c0-1.56,1.1-2.19,2.45-1.41A5.41,5.41,0,0,1,79.3,400.82Z" style="fill:#f5f5f5"></path><path d="M70.4,395.12V396c0,1.72-1.21,2.41-2.7,1.55l-19.13-11a6,6,0,0,1-2.69-4.67V381c0-1.71,1.2-2.41,2.69-1.55l19.13,11A5.93,5.93,0,0,1,70.4,395.12Z" style="fill:#f5f5f5"></path><polygon points="87.24 410.08 87.24 398.8 86.65 399.09 86.65 410.41 87.24 410.08" style="fill:#979aca"></polygon><polygon points="87.24 410.08 87.24 398.8 86.65 399.09 86.65 410.41 87.24 410.08" style="opacity:0.2"></polygon><path d="M42.91,371.16a.89.89,0,0,0,.43.68l43.29,25a1,1,0,0,0,.86,0l38.8-19.63v-.86L82.16,350.85,43.34,370.48A.89.89,0,0,0,42.91,371.16Z" style="fill:#979aca"></path><path d="M87.06,396.06v.85a1,1,0,0,1-.43-.09l-43.29-25a.75.75,0,0,1,0-1.36.26.26,0,0,0,0,.49l43.29,25A.85.85,0,0,0,87.06,396.06Z" style="opacity:0.1"></path><path d="M126.29,376.33,87.5,396a1,1,0,0,1-.44.1.85.85,0,0,1-.43-.1L43.34,371a.26.26,0,0,1,0-.49l38.82-19.63Z" style="opacity:0.5"></path><path d="M126.29,376.33v.86L87.5,396.82a.94.94,0,0,1-.44.09v-.85a1,1,0,0,0,.44-.1Z" style="opacity:0.2"></path><polygon points="125.7 376.67 81.55 351.2 81.55 339.85 125.7 365.46 125.7 376.67" style="fill:#979aca"></polygon><polygon points="125.7 376.67 81.55 351.2 81.55 339.85 125.7 365.46 125.7 376.67" style="opacity:0.7000000000000001"></polygon><path d="M43.44,365.06a1.2,1.2,0,0,0-.53.93v2.3a1.2,1.2,0,0,0,.53.93l43.08,24.85a1.21,1.21,0,0,0,1.08,0l32.89-17.79v-3.54L76.35,347.26Z" style="fill:#ebebeb"></path><path d="M76.35,347.26l-32.91,17.8a.33.33,0,0,0,0,.62l43.08,24.85a1.21,1.21,0,0,0,1.08,0l32.89-17.79Z" style="fill:#fafafa"></path><path d="M116.3,373a1.39,1.39,0,0,0,.36.12,1.07,1.07,0,0,0,.59,0,.4.4,0,0,0,.18-.07c.3-.16.26-.45-.08-.65a1.26,1.26,0,0,0-.52-.15,1,1,0,0,0-.61.11.09.09,0,0,0-.06,0C115.93,372.59,116,372.84,116.3,373Z" style="fill:#263238"></path><path d="M87.06,390.65v3.55a1,1,0,0,1-.54-.13L43.44,369.22a1.17,1.17,0,0,1-.53-.93V366a1.17,1.17,0,0,1,.41-.83c-.16.16-.13.37.12.52l43.08,24.84A.94.94,0,0,0,87.06,390.65Z" style="fill:#e6e6e6"></path><path d="M122.06,368.12a2.13,2.13,0,0,0-2.23.13,7.66,7.66,0,0,0-3,4.51l.74.11a7,7,0,0,1,2.67-4,1.92,1.92,0,0,1,.93-.29,1.06,1.06,0,0,1,.56.16,2.77,2.77,0,0,1,.88,2.51c-.07,2.35-1.41,5-3,5.92a1.68,1.68,0,0,1-1.11.27l-.8.46,0,0a1.79,1.79,0,0,0,.93.26,2.59,2.59,0,0,0,1.3-.39c1.81-1,3.29-3.91,3.36-6.53C123.34,369.77,122.89,368.61,122.06,368.12Z" style="fill:#263238"></path><path d="M42.91,364a.89.89,0,0,0,.43.68l43.29,25a.93.93,0,0,0,.86,0l38.8-23.71V365L82.16,339.56,43.34,363.28A.87.87,0,0,0,42.91,364Z" style="fill:#979aca"></path><path d="M87.06,388.85v.86a1,1,0,0,1-.43-.1l-43.29-25a.76.76,0,0,1,0-1.37.27.27,0,0,0,0,.5l43.29,25A.76.76,0,0,0,87.06,388.85Z" style="opacity:0.1"></path><path d="M126.29,365,87.5,388.75a.84.84,0,0,1-.44.1.76.76,0,0,1-.43-.1l-43.29-25a.27.27,0,0,1,0-.5l38.82-23.71Z" style="fill:#979aca"></path><path d="M126.29,365v.86L87.5,389.61a.84.84,0,0,1-.44.1v-.86a.84.84,0,0,0,.44-.1Z" style="opacity:0.2"></path><polygon points="126.29 376.33 126.29 365.06 125.7 365.46 125.7 376.67 126.29 376.33" style="fill:#979aca"></polygon><polygon points="126.29 376.33 126.29 365.06 125.7 365.46 125.7 376.67 126.29 376.33" style="opacity:0.2"></polygon><path d="M124.89,364.87a.69.69,0,0,0,.41-.57v-.88l-42.56-24a2.16,2.16,0,0,0-2,0L42.5,361.48,86.65,387Z" style="fill:#979aca"></path><path d="M124.89,364.87a.69.69,0,0,0,.41-.57v-.88l-42.56-24a2.16,2.16,0,0,0-2,0L42.5,361.48,86.65,387Z" style="opacity:0.2"></path><path d="M124.89,364c.55-.32.55-.83,0-1.14L82.74,338.53a2.16,2.16,0,0,0-2,0L42.5,360.62l44.15,25.47Z" style="fill:#979aca"></path><path d="M124.89,364c.55-.32.55-.83,0-1.14L82.74,338.53a2.16,2.16,0,0,0-2,0L42.5,360.62l44.15,25.47Z" style="opacity:0.5"></path><path d="M51.31,354.84,79.63,338.5a2.16,2.16,0,0,1,2,0L120.49,361l3.69-2.15v4.36l-.07,0a.6.6,0,0,1-.34.78L91.33,382.7,47.18,357.23v-4.77Z" style="fill:#ebebeb"></path><path d="M123.77,359.21a.6.6,0,0,0,0-1.14L81.61,333.73a2.22,2.22,0,0,0-2,0L47.18,352.46l44.15,25.47Z" style="fill:#fafafa"></path><polygon points="91.33 377.93 91.33 382.7 47.17 357.23 47.17 352.46 91.33 377.93" style="fill:#e6e6e6"></polygon><path d="M90.8,376.07a1.16,1.16,0,0,0,.37.13,1.26,1.26,0,0,0,.58,0,.62.62,0,0,0,.19-.07c.29-.16.26-.46-.08-.65a1.31,1.31,0,0,0-.52-.15,1.12,1.12,0,0,0-.62.1.08.08,0,0,0,0,.05C90.44,375.64,90.48,375.89,90.8,376.07Z" style="fill:#263238"></path><path d="M85.81,379.8a2.58,2.58,0,0,0,.5,1.65,1.78,1.78,0,0,0,1.42.67h0a2.69,2.69,0,0,0,1.37-.41,1.65,1.65,0,0,0,.25-.15l-.56-.32c-1.35.76-2.42.12-2.42-1.44a5.43,5.43,0,0,1,2.45-4.24,1.62,1.62,0,0,1,1.84-.09,1.28,1.28,0,0,1,.5.73,1.26,1.26,0,0,0,.58,0,2,2,0,0,0-.41-.87,1.75,1.75,0,0,0-1.42-.67,2.74,2.74,0,0,0-1.38.42A6,6,0,0,0,85.81,379.8Z" style="fill:#263238"></path><path d="M87.23,375.3l38.07-18.61v.62a1.1,1.1,0,0,1-.49.86l-37.58,18Z" style="fill:#979aca"></path><path d="M87.23,375.3l38.07-18.61v.62a1.1,1.1,0,0,1-.49.86l-37.58,18Z" style="opacity:0.2"></path><path d="M124.89,357.26a.61.61,0,0,0,0-1.15L82.74,331.78a2.16,2.16,0,0,0-2,0L42.5,350.14l44.15,25.48Z" style="fill:#979aca"></path><polygon points="86.65 386.95 42.5 361.48 42.5 350.13 86.65 375.62 86.65 386.95" style="fill:#979aca"></polygon><polygon points="86.65 386.95 42.5 361.48 42.5 350.13 86.65 375.62 86.65 386.95" style="opacity:0.1"></polygon><path d="M77.94,379.67a1.81,1.81,0,0,0,1.43-.67,2.63,2.63,0,0,0,.5-1.65,6,6,0,0,0-2.74-4.74,2.72,2.72,0,0,0-1.38-.42c-1.15,0-1.93.94-1.93,2.33a6,6,0,0,0,2.74,4.74,2.8,2.8,0,0,0,1.38.41Z" style="fill:#455a64"></path><path d="M79.3,377.35c0,1.56-1.1,2.19-2.45,1.41a5.4,5.4,0,0,1-2.46-4.24c0-1.57,1.1-2.2,2.45-1.42A5.41,5.41,0,0,1,79.3,377.35Z" style="fill:#f5f5f5"></path><path d="M70.4,371.65v.86c0,1.72-1.21,2.42-2.7,1.56L48.57,363a6,6,0,0,1-2.69-4.67v-.85c0-1.72,1.2-2.42,2.69-1.56L67.7,367A6,6,0,0,1,70.4,371.65Z" style="fill:#f5f5f5"></path><polygon points="87.24 386.61 87.24 375.33 86.65 375.62 86.65 386.95 87.24 386.61" style="fill:#979aca"></polygon><polygon points="87.24 386.61 87.24 375.33 86.65 375.62 86.65 386.95 87.24 386.61" style="opacity:0.2"></polygon></g><g id="freepik--sheets--inject-5"><g id="freepik--character--inject-5"><polygon points="97.98 436.89 143.44 463.18 143.44 435.3 97.98 409 97.98 436.89" style="fill:#ebebeb"></polygon><polygon points="174.95 444.99 143.44 463.18 143.44 435.3 174.95 417.11 174.95 444.99" style="fill:#f5f5f5"></polygon><polygon points="97.98 409 129.49 390.81 174.95 417.11 143.44 435.3 97.98 409" style="fill:#fafafa"></polygon></g><polygon points="121.67 432.06 143.44 444.63 156.5 437.09 143.44 445.41 121.67 432.06" style="opacity:0.1"></polygon><polygon points="108.61 431.54 143.44 451.65 169.56 436.57 143.44 452.41 108.61 431.54" style="opacity:0.1"></polygon><path d="M102.35,419.35a24.66,24.66,0,0,0-.36,6.13s5.7-.14,15.32,2.51Z" style="opacity:0.1"></path><polygon points="102.35 419.35 117.31 427.99 100.76 423.21 102.35 419.35" style="fill:#fafafa"></polygon><path d="M121.67,443.45l16.4,15.09s.46-2.08,3.61-3.54Z" style="opacity:0.1"></path><polygon points="121.67 443.45 137.07 456.43 141.68 455 121.67 443.45" style="fill:#fafafa"></polygon><path d="M169.7,428.19a1.72,1.72,0,0,0-.14-.2l-10.36,6,11.66-1A7.08,7.08,0,0,0,169.7,428.19Z" style="opacity:0.1"></path><polygon points="159.2 433.98 169.56 427.99 173.01 429.81 159.2 433.98" style="fill:#fafafa"></polygon><g style="opacity:0.30000000000000004"><path d="M106,410.94a.4.4,0,0,1-.2-.75l26.12-15.08a.4.4,0,0,1,.55.15.41.41,0,0,1-.15.55l-26.12,15.08A.39.39,0,0,1,106,410.94Z" style="fill:#455a64"></path><path d="M110.34,413.46a.43.43,0,0,1-.35-.2.4.4,0,0,1,.15-.55l26.12-15.09a.41.41,0,0,1,.41.7L110.54,413.4A.36.36,0,0,1,110.34,413.46Z" style="fill:#455a64"></path><path d="M114.69,416a.39.39,0,0,1-.34-.2.4.4,0,0,1,.14-.55l26.13-15.08a.4.4,0,1,1,.4.69L114.9,415.92A.54.54,0,0,1,114.69,416Z" style="fill:#455a64"></path><path d="M119.05,418.48a.4.4,0,0,1-.2-.75L145,402.65a.4.4,0,1,1,.4.7l-26.12,15.08A.35.35,0,0,1,119.05,418.48Z" style="fill:#455a64"></path><path d="M123.4,421a.4.4,0,0,1-.2-.75l26.13-15.08a.4.4,0,1,1,.4.69L123.6,420.94A.36.36,0,0,1,123.4,421Z" style="fill:#455a64"></path><path d="M127.76,423.51a.4.4,0,0,1-.2-.75l26.12-15.08a.4.4,0,0,1,.4.7L128,423.46A.35.35,0,0,1,127.76,423.51Z" style="fill:#455a64"></path><path d="M132.11,426a.43.43,0,0,1-.35-.2.4.4,0,0,1,.15-.55L158,410.19a.41.41,0,0,1,.41.7L132.31,426A.36.36,0,0,1,132.11,426Z" style="fill:#455a64"></path><path d="M136.47,428.54a.39.39,0,0,1-.35-.2.4.4,0,0,1,.14-.55l26.13-15.08a.4.4,0,1,1,.4.69l-26.12,15.09A.53.53,0,0,1,136.47,428.54Z" style="fill:#455a64"></path><path d="M140.82,431.05a.4.4,0,0,1-.2-.75l26.12-15.08a.41.41,0,0,1,.55.15.4.4,0,0,1-.15.55L141,431A.35.35,0,0,1,140.82,431.05Z" style="fill:#455a64"></path></g></g></g><g id="freepik--speech-bubble--inject-5"><g id="freepik--speech-bubble--inject-5"><g id="freepik--speech-bubble--inject-5"><path d="M339.66,80.33a.71.71,0,0,0-.39-.11h-.88V95l8.69-9.32a.8.8,0,0,0-.2-1.2Z" style="fill:#979aca"></path><path d="M339.66,80.33a.71.71,0,0,0-.39-.11h-.88V95l8.69-9.32a.8.8,0,0,0-.2-1.2Z" style="fill:#fff;opacity:0.5"></path><path d="M338.39,95l8.69-9.32a.79.79,0,0,0-.6-1.3h-8.09l-2,1.71Z" style="fill:#979aca"></path><path d="M338.39,75.61A7.52,7.52,0,0,0,335,69.7h0a7.54,7.54,0,0,0-6.83,0l-60.61,35a7.53,7.53,0,0,0-3.42,5.91v26.33a7.55,7.55,0,0,0,3.42,5.92h0a7.54,7.54,0,0,0,6.83,0l60.93-35.18c3.07-1.75,3.1-3.5,3.1-5.68Z" style="fill:#979aca"></path><path d="M264.12,136.89a7.55,7.55,0,0,0,3.42,5.92h0a7.68,7.68,0,0,0,6.25.29c-1.61.6-2.83-.31-2.83-2.26V114.5a7,7,0,0,1,1-3.37l-6.83-3.93a7,7,0,0,0-1,3.36Z" style="opacity:0.2"></path><path d="M338.28,74.64c-.4-1.45-1.72-1.91-3.3-1l-60.62,35a6.65,6.65,0,0,0-2.4,2.55l-6.83-3.94a7.06,7.06,0,0,1,2.41-2.55l60.6-34.95a7.62,7.62,0,0,1,6.84,0h0A7.55,7.55,0,0,1,338.28,74.64Z" style="fill:#fff;opacity:0.5"></path></g><path d="M282.93,124.12a.19.19,0,0,1,.25,0,.42.42,0,0,1,.11.34v2.2a1,1,0,0,1-.11.46.67.67,0,0,1-.25.31l-6.25,3.61a.19.19,0,0,1-.25,0,.41.41,0,0,1-.11-.33V117.28a1,1,0,0,1,.11-.46.62.62,0,0,1,.25-.31l1.77-1a.19.19,0,0,1,.25,0,.42.42,0,0,1,.11.34v10.65Z" style="fill:#fafafa"></path><path d="M286.4,121.22a1.69,1.69,0,0,0,.11.72.67.67,0,0,0,.29.34.64.64,0,0,0,.39,0,1.54,1.54,0,0,0,.42-.17,2.89,2.89,0,0,0,.64-.49,2.67,2.67,0,0,0,.4-.59l.21-.36a1.22,1.22,0,0,1,.23-.19l1.76-1c.2-.11.3,0,.3.29a3.28,3.28,0,0,1-.21.87,7.19,7.19,0,0,1-.63,1.4,8.68,8.68,0,0,1-1.09,1.56,5.9,5.9,0,0,1-1.61,1.32,3.33,3.33,0,0,1-1.56.52,1.54,1.54,0,0,1-1.15-.45,3,3,0,0,1-.7-1.36,9.26,9.26,0,0,1-.23-2.21,12.53,12.53,0,0,1,.23-2.37,10.69,10.69,0,0,1,.7-2.18,8.79,8.79,0,0,1,1.15-1.84,5.93,5.93,0,0,1,1.56-1.32,2.62,2.62,0,0,1,1.68-.46,1.72,1.72,0,0,1,1.13.66,3.46,3.46,0,0,1,.64,1.45,8.91,8.91,0,0,1,.19,1.89v.59a1,1,0,0,1-.1.45.73.73,0,0,1-.26.32Zm1.21-4.69a2,2,0,0,0-.86,1,4.14,4.14,0,0,0-.35,1.37l2.42-1.41a1.63,1.63,0,0,0-.35-1C288.28,116.32,288,116.31,287.61,116.53Z" style="fill:#fafafa"></path><path d="M295.65,115.88a1.15,1.15,0,0,0,.14.66c.09.12.23.12.44,0l1.08-.62a.21.21,0,0,1,.26,0,.48.48,0,0,1,.11.34v2.1a1.06,1.06,0,0,1-.11.45.73.73,0,0,1-.26.32l-1.28.74a2.55,2.55,0,0,1-1.15.38,1.25,1.25,0,0,1-.89-.3,2,2,0,0,1-.56-1,5.22,5.22,0,0,1-.21-1.6v-3.49l-1,.58a.18.18,0,0,1-.25,0,.45.45,0,0,1-.11-.33V112a1.06,1.06,0,0,1,.11-.45.72.72,0,0,1,.25-.32l1-.58v-3.38a1.11,1.11,0,0,1,.11-.46.68.68,0,0,1,.26-.31l1.7-1a.19.19,0,0,1,.25,0,.46.46,0,0,1,.11.34v3.38l1.53-.88a.18.18,0,0,1,.25,0,.45.45,0,0,1,.11.33v2.1a1.11,1.11,0,0,1-.11.46.74.74,0,0,1-.25.31l-1.53.88Z" style="fill:#fafafa"></path><path d="M300.09,102.24a2.07,2.07,0,0,1,.25-.47,1,1,0,0,1,.25-.21l1.79-1c.18-.09.26,0,.26.27a.59.59,0,0,1-.07.29l-1.82,3.36a3.48,3.48,0,0,1-.23.38,1,1,0,0,1-.34.3l-1.18.68c-.15.09-.22,0-.22-.2a.62.62,0,0,1,.07-.31Z" style="fill:#fafafa"></path><path d="M308.13,109.65a.35.35,0,0,0-.1-.3.48.48,0,0,0-.34,0,4.05,4.05,0,0,0-.65.2c-.26.1-.59.2-1,.32a1.5,1.5,0,0,1-1.58-.25,2.79,2.79,0,0,1-.55-2,4.91,4.91,0,0,1,.23-1.44,7,7,0,0,1,.64-1.43,7.18,7.18,0,0,1,1-1.28,5.75,5.75,0,0,1,1.3-1,3.59,3.59,0,0,1,1.29-.49,2.15,2.15,0,0,1,1,.07,1.4,1.4,0,0,1,.68.54,1.8,1.8,0,0,1,.28.89,1,1,0,0,1-.1.46.7.7,0,0,1-.27.31l-1.6.93q-.15.09-.24,0l-.21-.1a.6.6,0,0,0-.32,0,1.45,1.45,0,0,0-.54.21,1.87,1.87,0,0,0-.52.44.87.87,0,0,0-.21.56.5.5,0,0,0,.07.32c0,.06.13.07.27,0l.56-.17,1-.33c.82-.26,1.42-.18,1.79.25a2.82,2.82,0,0,1,.56,1.89,5,5,0,0,1-.23,1.45,6.43,6.43,0,0,1-.67,1.47,7.68,7.68,0,0,1-1.08,1.36,7.19,7.19,0,0,1-1.45,1.1,3.73,3.73,0,0,1-1.42.54,1.87,1.87,0,0,1-1-.12,1.34,1.34,0,0,1-.64-.58,2,2,0,0,1-.25-.88.86.86,0,0,1,.1-.45.72.72,0,0,1,.26-.32l1.67-1c.1-.06.17-.06.22,0a.71.71,0,0,0,.18.15.53.53,0,0,0,.31.06,1.48,1.48,0,0,0,.6-.23,2.82,2.82,0,0,0,.7-.57A1,1,0,0,0,308.13,109.65Z" style="fill:#fafafa"></path><path d="M317.94,108.68a2.78,2.78,0,0,0,.9-.88,2.37,2.37,0,0,0,.39-1.32V105c-.08.2-.16.4-.26.6a3.73,3.73,0,0,1-.35.6,4.47,4.47,0,0,1-.51.59,3.82,3.82,0,0,1-.75.54,2.55,2.55,0,0,1-1.15.38,1.24,1.24,0,0,1-.94-.31,2.44,2.44,0,0,1-.66-1.08,6.38,6.38,0,0,1-.27-1.89c0-.21,0-.45,0-.73s0-.54,0-.75a10.39,10.39,0,0,1,.27-2.23,8.92,8.92,0,0,1,.66-1.83,6.79,6.79,0,0,1,.94-1.41,4.8,4.8,0,0,1,1.15-1,2.58,2.58,0,0,1,.77-.32,1.47,1.47,0,0,1,.55,0,.91.91,0,0,1,.38.19,1.46,1.46,0,0,1,.24.27V96.2a1.11,1.11,0,0,1,.11-.46.64.64,0,0,1,.26-.31l1.56-.91a.21.21,0,0,1,.26,0,.46.46,0,0,1,.11.34V105a8.5,8.5,0,0,1-1,4.12,7.21,7.21,0,0,1-1.16,1.55,6.83,6.83,0,0,1-1.49,1.15,3.47,3.47,0,0,1-1.72.59,1.54,1.54,0,0,1-1-.37,2,2,0,0,1-.53-.89,4.23,4.23,0,0,1-.16-1,.82.82,0,0,1,.1-.45.73.73,0,0,1,.26-.32l1.76-1c.19-.11.32-.05.41.17a.63.63,0,0,0,.29.31C317.42,108.91,317.63,108.86,317.94,108.68Zm-1.19-6.9c0,.22,0,.4,0,.53a4.63,4.63,0,0,0,0,.49,1.66,1.66,0,0,0,.33,1c.2.2.49.19.89,0a2.06,2.06,0,0,0,.84-1,4.31,4.31,0,0,0,.36-1.28,7.16,7.16,0,0,0,0-1.31,1.36,1.36,0,0,0-.35-.85c-.2-.19-.49-.18-.85,0a2.18,2.18,0,0,0-.88,1A3.79,3.79,0,0,0,316.75,101.78Z" style="fill:#fafafa"></path><path d="M330.2,94c0,.2,0,.46,0,.79s0,.59,0,.8a9.13,9.13,0,0,1-.29,2,9.59,9.59,0,0,1-.75,2,7.83,7.83,0,0,1-1.14,1.69,5.79,5.79,0,0,1-1.49,1.23A3.14,3.14,0,0,1,325,103a1.74,1.74,0,0,1-1.14-.37,2.57,2.57,0,0,1-.74-1.1,5.27,5.27,0,0,1-.3-1.7c0-.2,0-.46,0-.79s0-.59,0-.81a8.5,8.5,0,0,1,.29-2,9.45,9.45,0,0,1,.75-2A8.28,8.28,0,0,1,325,92.5a5.79,5.79,0,0,1,1.49-1.24,3,3,0,0,1,1.49-.48,1.75,1.75,0,0,1,1.15.38,2.32,2.32,0,0,1,.74,1.09A5.35,5.35,0,0,1,330.2,94Zm-4.91,4.33a1.35,1.35,0,0,0,.37,1q.33.25.87-.06a2.24,2.24,0,0,0,.87-1,3.34,3.34,0,0,0,.37-1.45c0-.21,0-.46,0-.72s0-.49,0-.69a1.31,1.31,0,0,0-.37-1q-.33-.26-.87.06a2.21,2.21,0,0,0-.87.94,3.57,3.57,0,0,0-.37,1.45c0,.22,0,.46,0,.73S325.27,98.09,325.29,98.29Z" style="fill:#fafafa"></path><path d="M333.94,93a1.11,1.11,0,0,1-.11.46.62.62,0,0,1-.25.31l-1.7,1a.21.21,0,0,1-.26,0,.46.46,0,0,1-.11-.34v-9a1.14,1.14,0,0,1,.11-.46.68.68,0,0,1,.26-.31l1.7-1a.18.18,0,0,1,.25,0,.45.45,0,0,1,.11.33Zm0,4.47a1.06,1.06,0,0,1-.11.45.65.65,0,0,1-.25.32l-1.7,1a.2.2,0,0,1-.26,0,.45.45,0,0,1-.11-.33v-2.1a1.14,1.14,0,0,1,.11-.46.68.68,0,0,1,.26-.31l1.7-1a.18.18,0,0,1,.25,0,.45.45,0,0,1,.11.33Z" style="fill:#fafafa"></path></g></g></svg>