<svg xmlns="http://www.w3.org/2000/svg" xmlns:xlink="http://www.w3.org/1999/xlink" viewBox="0 0 500 500"><defs><clipPath id="freepik--clip-path--inject-25"><path d="M292.86,226.9a1.34,1.34,0,0,0,0-.2,23.11,23.11,0,0,0-1.12-7.15A83.54,83.54,0,0,0,289.7,211a20.12,20.12,0,0,0-9.12-12.11,7.53,7.53,0,0,0-.9-.56.82.82,0,0,0-.2-.12l-.21-.11c-5.7-3.14-12.11-1.67-17,.56a15.86,15.86,0,0,0-6.15,4.92,24.55,24.55,0,0,0-4.44,7.86,23.43,23.43,0,0,0-3.4,25.21,33.74,33.74,0,0,0,.29,3.62c0,.16.24.13.24,0,0-.85,0-1.69,0-2.53q.45.82,1,1.62c0,.42,0,.83,0,1.24,0,.58.86,1.21,2.32,1.84a23.44,23.44,0,0,0,35.19-.54,23.61,23.61,0,0,0,4.1-2.44c.63-.47.83-3,.65-6.54a19.31,19.31,0,0,0,.56-2.53c.28,2.63.5,5.27.71,7.91,0,.19.3.17.3,0A113.11,113.11,0,0,0,292.86,226.9Zm-7.77-23.37c-.21-.31-.44-.61-.66-.9a24.43,24.43,0,0,1,5.27,10.53c.26,1,.5,2.06.72,3.09a23.39,23.39,0,0,0-1.28-2.23h0C288,209.63,286.65,205.76,285.09,203.53Z" style="fill:none"></path></clipPath><clipPath id="freepik--clip-path-2--inject-25"><path d="M302.87,149.8a23.44,23.44,0,1,1-35.37-20.17c1.09-3.5,3.91-6.83,10.2-8.41,12.31-3.07,15,5.81,15.3,6.77a0,0,0,0,1,0,0h0a0,0,0,0,1,0,0,34.19,34.19,0,0,1,1.09,3.48A23.32,23.32,0,0,1,302.87,149.8Z" style="fill:none"></path></clipPath></defs><g id="freepik--Plant--inject-25"><path d="M396.3,360.79s23-5.2,35.54-16.79,19.61-32.36,19.61-32.36a196.65,196.65,0,0,0-25.74,6.76c-2.06,2.2-6,6.73-7.79,11a52.29,52.29,0,0,1-.06-7.87,35,35,0,0,0-8.18,5C399.25,335.63,396.3,360.79,396.3,360.79Z" style="fill:#08B6C2"></path><path d="M437.12,321.73c3.13-2.16,6.31-4.25,9.43-6.44a.18.18,0,0,0-.19-.3c-5.92,3.53-11.75,7.31-17.39,11.26-2,1.38-3.9,2.81-5.81,4.28l.4-.68c.69-1.16,1.42-2.29,2.14-3.42a49,49,0,0,1,4.88-6.5c.06-.08-.05-.19-.12-.11-1.78,2.06-3.57,4.1-5.2,6.29-.78,1-1.49,2.11-2.18,3.21-.36.58-.7,1.15-1,1.74l-.35.59c-3,2.33-5.85,4.76-8.61,7.33q-2.56,2.38-4.93,4.93c.88-2.78,1.66-5.59,2.69-8.32a.08.08,0,1,0-.15,0c-1,2.87-2.1,5.75-2.87,8.7-1.76,1.9-3.44,3.86-5,5.91,0-.12.05-.25.08-.37.26-1.08.53-2.16.82-3.24.56-2.07,1.17-4.14,1.87-6.17a36,36,0,0,1,6.17-11.65c.06-.07-.05-.18-.12-.1-4.48,5.3-7.11,11.67-8.79,18.35-.24,1-.48,2-.7,2.94-.12.53-.25,1.06-.34,1.59-.7.94-1.38,1.89-2,2.86a99.84,99.84,0,0,0-9.71,19,221.06,221.06,0,0,0-7.36,22.94c0,.15.19.2.24,0,4.49-13.43,9.07-27,16.76-39.06a89.59,89.59,0,0,1,5.24-7.33,43.42,43.42,0,0,0,11.16-2.22,49.61,49.61,0,0,0,11.19-5.41,66.7,66.7,0,0,0,5.73-4.33.08.08,0,1,0-.1-.12,45.64,45.64,0,0,1-10.52,6.37,56.92,56.92,0,0,1-11.58,3.88c-1.69.37-3.41.65-5.13.88a94.27,94.27,0,0,1,6.77-7.5c.77-.77,1.57-1.51,2.37-2.26a53.69,53.69,0,0,1,8.49-4.86c3.76-1.82,7.46-3.75,11.18-5.64,2.1-1.07,4.19-2.16,6.31-3.19.09-.05,0-.18-.09-.14-3.77,1.83-7.6,3.53-11.41,5.27-3.58,1.64-7.21,3.29-10.65,5.22l-.43.26c3.11-2.7,6.33-5.28,9.62-7.77C430.89,326.15,434,323.9,437.12,321.73Z" style="fill:#263238"></path><path d="M435.81,333.57c-1.87.81-3.77,1.54-5.61,2.4s-3.71,1.93-5.51,3a.07.07,0,0,0,.07.12c1.83-.88,3.69-1.7,5.5-2.61s3.69-1.93,5.6-2.76C436,333.68,435.9,333.53,435.81,333.57Z" style="fill:#263238"></path><path d="M321.74,245.12a32.83,32.83,0,0,1,6.86,19.06c.07,2.06-.25,4.93-.49,8.3,8.56,4.57,15,12.8,15,12.8-4.86-2.92-11.54-4.1-15.14-3.62a45.38,45.38,0,0,0,.88,6.86c1.59-.09,4.66.12,9.73,1.92a21.81,21.81,0,0,0-8.77,1.75c4.09,13,16.25,26.39,49.83,32.07,0,0,6.48-22.8-5.94-47.26C363.61,257.2,321.74,245.12,321.74,245.12Z" style="fill:#08B6C2"></path><path d="M391.25,380c-.58-5.56-1.32-11.11-2.18-16.63a328.75,328.75,0,0,0-6.77-32.88,130.21,130.21,0,0,0-4.85-15,21.93,21.93,0,0,0,.13-2.69c0-1.07,0-2.15,0-3.22,0-2.16-.12-4.3-.3-6.45a77.8,77.8,0,0,0-2.07-12.59c-.61-2.39-1.33-4.75-2-7.12a.08.08,0,0,0-.15.05A92.2,92.2,0,0,1,375.52,296a115.62,115.62,0,0,1,1.13,12.6c0,1.16.06,2.31.07,3.47,0,.49,0,1,0,1.48A108.7,108.7,0,0,0,371,301.86a142.71,142.71,0,0,0-11.5-17.2,7.49,7.49,0,0,0-.27-1.88c-.16-.75-.32-1.5-.49-2.25-.35-1.53-.73-3.06-1.15-4.57-.83-3-1.93-6-2.89-9a.08.08,0,0,0-.15,0c.89,3,1.48,6.06,2.16,9.09.34,1.49.67,3,1,4.49l.48,2.25,0,.17q-2-2.56-4.16-5.06c-6.42-7.52-13.45-14.46-20.52-21.35-.87-.85-1.77-1.67-2.65-2.51-.07-.07-.18,0-.11.12,6.77,7,13.43,14.19,19.73,21.66,1.5,1.78,3,3.57,4.43,5.39l-2.29-1.52c-2-1.28-3.94-2.52-6-3.66s-4.09-2.26-6.18-3.3-4.46-1.93-6.53-3.14c-.09-.05-.17.1-.08.14a47.63,47.63,0,0,1,6.13,3.39c2,1.21,4.08,2.43,6.09,3.71s4,2.48,5.92,3.76c1.63,1.06,3.24,2.22,4.94,3.2a159.63,159.63,0,0,1,10.76,15.66,116.67,116.67,0,0,1,5.56,10.55l-1.21-.53L369,308.16c-2-.88-4-1.73-5.94-2.6-3.77-1.63-7.6-3.14-11.29-4.94a51.34,51.34,0,0,1-6-3.34c-.08-.06-.16.08-.08.13,6.89,4.75,14.61,8.09,22.23,11.47l3.31,1.46c.91.4,1.81.85,2.75,1.2a117.52,117.52,0,0,1,5.68,15.56A317,317,0,0,1,387,359.59c1.92,11,3.22,22,4.23,33.11.13,1.38.25,2.76.41,4.14a.44.44,0,0,0,.87,0C392.41,391.19,391.84,385.55,391.25,380Z" style="fill:#263238"></path><path d="M370.82,287.21c-.62-3.41-1.53-6.75-2.45-10.09,0-.1-.17-.06-.15,0,.85,3.28,1.46,6.63,2.08,10s1.18,6.8,1.66,10.22c0,.06.1.06.09,0A90.64,90.64,0,0,0,370.82,287.21Z" style="fill:#263238"></path><path d="M356.34,296.47a60.73,60.73,0,0,0-7.3-4.11c-1.22-.63-2.46-1.23-3.7-1.83s-2.61-1.14-3.88-1.78a.08.08,0,0,0-.07.14c1.22.62,2.39,1.36,3.6,2l3.72,2c2.46,1.32,4.87,2.78,7.45,3.85A.19.19,0,0,0,356.34,296.47Z" style="fill:#263238"></path><path d="M396.72,321s21.24-5.07,31-19.32c9.32-13.61,12.33-36.8,12.57-38.84-.39,1.87-4.77,22.14-19.23,31.58C410,301.69,399.28,307.64,396.72,321Z" style="fill:#263238;opacity:0.1"></path><path d="M416.33,284.33a27.17,27.17,0,0,0-7.84,12.9s.06.07.07,0a31.77,31.77,0,0,1,7.87-12.8C416.5,284.38,416.4,284.26,416.33,284.33Z" style="fill:#263238"></path><path d="M396.72,321s21.24-5.07,31-19.32c9.32-13.61,12.33-36.8,12.57-38.84a.86.86,0,0,0,0-.15s-10.18,14.48-20.89,18.18S393.65,297.36,396.72,321Z" style="fill:#08B6C2"></path><path d="M436.54,270.71A86.93,86.93,0,0,1,430,281.94a44.85,44.85,0,0,1-8.74,9c-2.88,2.29-5.93,4.37-8.85,6.61l.06-.1c.55-.82,1.14-1.61,1.74-2.38,1.22-1.55,2.55-3,3.89-4.47,2.64-2.86,5.33-5.67,7.7-8.77a33,33,0,0,0,3.4-5.49c.05-.09-.1-.14-.15-.05-3.44,7.18-10.32,11.77-15.23,17.83-.7.87-1.36,1.76-2,2.69A11.69,11.69,0,0,0,410.6,299a44.37,44.37,0,0,0-7.24,7.32,28.68,28.68,0,0,1,.85-4.12,21,21,0,0,1,2.25-5.38c.05-.09-.08-.17-.13-.09a25.73,25.73,0,0,0-2.48,5.35,18.45,18.45,0,0,0-.77,4.58v0a41.77,41.77,0,0,0-2.87,4.46c.09-.45.17-.91.26-1.36.42-2.12.89-4.23,1.44-6.31a37.71,37.71,0,0,1,5.11-12c.06-.08-.07-.17-.13-.09a45.43,45.43,0,0,0-5.66,11.71c-.68,2.08-1.22,4.2-1.7,6.34-.23,1.05-.44,2.1-.64,3.15-.11.54-.22,1.1-.31,1.66a76.18,76.18,0,0,0-4.9,14.4,210.18,210.18,0,0,0-4.53,26.85A222.78,222.78,0,0,0,387.68,384c0,1.19.09,2.39.15,3.58,0,.31.48.35.49,0,.21-4.72.33-9.43.61-14.14s.69-9.42,1.2-14.11a251.58,251.58,0,0,1,4.42-27.46c1.73-7.77,4-15.59,8.2-22.39a41.84,41.84,0,0,1,7.67-9.11c3-2.68,6.23-5,9.37-7.49a52.19,52.19,0,0,0,8.6-8.27,67.79,67.79,0,0,0,6.76-11c.5-1,1-1.91,1.52-2.87C436.71,270.71,436.58,270.62,436.54,270.71Z" style="fill:#263238"></path><path d="M432.87,273.82a71.32,71.32,0,0,1-4.73,8.28c0,.06.05.12.1.06a57.33,57.33,0,0,0,4.78-8.29C433.06,273.78,432.91,273.73,432.87,273.82Z" style="fill:#263238"></path><path d="M318.78,311.64s-.34,30.18,17.71,38.9,27.72,1.45,40,4.37h0c-.47-.72-9.22-13.31-23.14-16.77C339,334.56,323.12,324.22,318.78,311.64Z" style="fill:#08B6C2"></path><path d="M318.78,311.64s-.34,30.18,17.71,38.9,27.72,1.45,40,4.37h0a68.09,68.09,0,0,0-20.51-6.06C344.56,347.47,322.81,340.06,318.78,311.64Z" style="fill:#263238;opacity:0.1"></path><path d="M377.66,355.45a30.31,30.31,0,0,0-7.17-4.86c-.39-.19-.79-.34-1.18-.51-.19-.24-.4-.47-.61-.69-.54-.56-1.1-1.1-1.7-1.61a24.61,24.61,0,0,0-3.63-2.62c-3-1.76-6.26-3-9.32-4.62-.09-.05-.17.09-.08.13,1.51.79,3,1.65,4.45,2.51s2.89,1.63,4.28,2.53a31.08,31.08,0,0,1,3.57,2.68c.32.28.63.58.93.89a46.07,46.07,0,0,0-6.1-1.62c-3.3-.67-6.64-1.14-9.94-1.85a46.34,46.34,0,0,1-4.79-1.29c-1.5-1.21-3-2.4-4.41-3.71a36.91,36.91,0,0,1-4.67-5.17c-.06-.09-.19,0-.13.08a55.56,55.56,0,0,0,7.4,8.16q-1.17-.44-2.31-1a37.24,37.24,0,0,1-15.38-12.79c-.05-.08-.19,0-.13.08a42.18,42.18,0,0,0,12.44,12,38.19,38.19,0,0,0,7.86,3.72,74.17,74.17,0,0,0,9.77,2.31,68.27,68.27,0,0,1,9.57,2.27,29.19,29.19,0,0,1,8,4.22,37.51,37.51,0,0,1,10.81,13.41c3.42,6.85,5.05,14.51,6,22.07,0,.32.54.32.51,0C390.84,377.46,387.45,364.26,377.66,355.45Z" style="fill:#263238"></path><path d="M356.72,345.61a10.36,10.36,0,0,0-3.71-3.37,13.53,13.53,0,0,1-4.41-3.65c-.06-.08-.2,0-.14.08a14.93,14.93,0,0,0,3.9,3.49,13.64,13.64,0,0,1,4.25,3.51C356.66,345.74,356.77,345.68,356.72,345.61Z" style="fill:#263238"></path><polygon points="366.3 377.73 367.12 394.32 369.63 445.04 407.5 445.04 410.01 394.32 410.83 377.73 366.3 377.73" style="fill:#37474f"></polygon><polygon points="366.3 377.73 367.12 394.32 410.01 394.32 410.83 377.73 366.3 377.73" style="fill:#263238"></polygon><rect x="363.64" y="370.8" width="49.85" height="15.83" transform="translate(777.13 757.43) rotate(180)" style="fill:#37474f"></rect></g></svg>