<!DOCTYPE svg PUBLIC "-//W3C//DTD SVG 1.1//EN" "http://www.w3.org/Graphics/SVG/1.1/DTD/svg11.dtd">

<!-- Uploaded to: SVG Repo, www.svgrepo.com, Transformed by: SVG Repo Mixer Tools -->
<svg fill="#fff" height="25px" width="25px" version="1.1" id="Layer_1" xmlns="http://www.w3.org/2000/svg" xmlns:xlink="http://www.w3.org/1999/xlink" viewBox="0 0 512 512" xml:space="preserve" stroke="#fff">

<g id="SVGRepo_bgCarrier" stroke-width="0"/>

<g id="SVGRepo_tracerCarrier" stroke-linecap="round" stroke-linejoin="round"/>

<g id="SVGRepo_iconCarrier"> <g> <g> <path d="M490.667,0H21.333C9.552,0,0,9.551,0,21.333v469.333C0,502.449,9.552,512,21.333,512h469.333 c11.782,0,21.333-9.551,21.333-21.333V21.333C512,9.551,502.45,0,490.667,0z M469.334,469.333L469.334,469.333H42.667V42.667 h426.667V469.333z"/> </g> </g> <g> <g> <path d="M405.335,106.667H234.667c-11.782,0-21.333,9.551-21.333,21.333c-0.001,11.782,9.551,21.333,21.333,21.333h170.667 c11.782,0,21.333-9.551,21.333-21.333S417.117,106.667,405.335,106.667z"/> </g> </g> <g> <g> <path d="M405.335,234.667H234.667c-11.782,0-21.333,9.551-21.333,21.333c0,11.782,9.551,21.333,21.333,21.333h170.667 c11.782,0,21.333-9.551,21.333-21.333C426.668,244.218,417.117,234.667,405.335,234.667z"/> </g> </g> <g> <g> <path d="M405.335,362.667H234.667c-11.782,0-21.333,9.551-21.333,21.333c-0.001,11.782,9.551,21.333,21.333,21.333h170.667 c11.782,0,21.333-9.551,21.333-21.333C426.668,372.218,417.117,362.667,405.335,362.667z"/> </g> </g> <g> <g> <path d="M158.17,128l6.248-6.248c8.331-8.331,8.331-21.839,0-30.17s-21.839-8.331-30.17,0L128,97.83l-6.248-6.248 c-8.331-8.331-21.839-8.331-30.17,0c-8.331,8.331-8.331,21.839,0,30.17L97.831,128l-6.248,6.248 c-8.331,8.332-8.331,21.839,0,30.17c8.331,8.331,21.839,8.331,30.17,0L128,158.17l6.248,6.248c8.331,8.331,21.839,8.331,30.17,0 s8.331-21.839,0-30.17L158.17,128z"/> </g> </g> <g> <g> <path d="M158.17,256l6.248-6.248c8.331-8.331,8.331-21.839,0-30.17s-21.839-8.331-30.17,0L128,225.83l-6.248-6.248 c-8.331-8.331-21.839-8.331-30.17,0s-8.331,21.839,0,30.17L97.831,256l-6.248,6.248c-8.331,8.332-8.331,21.839,0,30.17 c8.331,8.331,21.839,8.331,30.17,0L128,286.17l6.248,6.248c8.331,8.331,21.839,8.331,30.17,0s8.331-21.839,0-30.17L158.17,256z"/> </g> </g> <g> <g> <path d="M158.17,384l6.248-6.248c8.331-8.331,8.331-21.839,0-30.17c-8.331-8.331-21.839-8.331-30.17,0L128,353.83l-6.248-6.248 c-8.331-8.331-21.839-8.331-30.17,0c-8.331,8.331-8.331,21.839,0,30.17L97.831,384l-6.248,6.248 c-8.331,8.332-8.331,21.839,0,30.17c8.331,8.331,21.839,8.331,30.17,0L128,414.17l6.248,6.248c8.331,8.331,21.839,8.331,30.17,0 s8.331-21.839,0-30.17L158.17,384z"/> </g> </g> </g>

</svg>